<svg xmlns="http://www.w3.org/2000/svg" width="1440" height="200" fill="none" viewBox="0 0 1440 200">
    <mask id="b" width="1440" height="200" x="0" y="0" maskUnits="userSpaceOnUse">
        <path fill="url(#a)" d="M0 0h1440v200H0z"/>
    </mask>
    <g>
        <path fill="url(#d)" d="M0 0h1440v200H0z" filter="url(#c)"/>
        <g style="mix-blend-mode:lighten">
            <path fill="#003E6B" d="M1065.97-6.342l40.54 22.868v45.736l-40.54 22.868-40.54-22.868V16.526l40.54-22.868z" opacity=".3"/>
            <path fill="#003E6B" d="M1108.69 66.48l40.53 22.868v45.736l-40.53 22.868-40.54-22.868V89.348l40.54-22.868z"/>
            <path fill="#336589" d="M1065.97 138.417l40.54 22.868v45.736l-40.54 22.868-40.54-22.868v-45.736l40.54-22.868z"/>
            <path fill="#003E6B" d="M980.532-6.342l40.538 22.868v45.736L980.532 85.13l-40.538-22.868V16.526l40.538-22.868zM980.532 138.417l40.538 22.868v45.736l-40.538 22.868-40.538-22.868v-45.736l40.538-22.868zM1108.68-78.276l40.54 22.868V-9.67l-40.54 22.868-40.53-22.868v-45.737l40.53-22.868z"/>
            <path fill="#003E6B" d="M1151.41-6.342l40.54 22.868v45.736l-40.54 22.868-40.54-22.868V16.526l40.54-22.868z" opacity=".3"/>
            <path fill="#003E6B" d="M1151.41 138.417l40.54 22.868v45.736l-40.54 22.868-40.54-22.868v-45.736l40.54-22.868z" opacity=".9"/>
            <path fill="#336589" d="M937.809 66.48l40.539 22.868v45.736l-40.539 22.868-40.538-22.868V89.348l40.538-22.868z"/>
            <path fill="#003E6B" d="M1310.53 256.409l-40.54-22.868v-45.736l40.54-22.868 40.54 22.868v45.736l-40.54 22.868z"/>
            <path fill="#336589" d="M1353.25 184.472l-40.54-22.868v-45.737l40.54-22.868 40.54 22.868v45.737l-40.54 22.868z"/>
            <path fill="#003E6B" d="M1438.68 184.472l-40.53-22.868v-45.737l40.53-22.868 40.54 22.868v45.737l-40.54 22.868z"/>
            <path fill="#003E6B" d="M1267.81 184.472l-40.54-22.868v-45.737l40.54-22.868 40.54 22.868v45.737l-40.54 22.868z" opacity=".9"/>
            <path fill="#003E6B" d="M107.659 66.428l40.663 23.005v46.01l-40.663 23.005-40.662-23.005v-46.01l40.662-23.005z" opacity=".6"/>
            <path fill="#336589" d="M193.359 66.421l40.663 22.733v45.467l-40.663 22.733-40.662-22.733V89.154l40.662-22.733zM65 138.844l40.703 22.734v45.466L65 229.778l-40.703-22.734v-45.466L65 138.844z" opacity=".3"/>
            <path fill="#003E6B" d="M193.359-79.2l40.663 22.733V-11l-40.663 22.733L152.697-11v-45.467L193.359-79.2z"/>
            <path fill="#003E6B" d="M236.215 138.791l40.663 22.733v45.467l-40.663 22.733-40.663-22.733v-45.467l40.663-22.733z" opacity=".9"/>
            <path fill="#336589" d="M450.473 67.343l40.663 22.733v45.467l-40.663 22.733-40.663-22.733V90.076l40.663-22.733z" opacity=".3"/>
            <path fill="#003E6B" d="M321.926-5.908l40.663 22.734v45.466l-40.663 22.734-40.663-22.734V16.826l40.663-22.734z"/>
            <path fill="#336589" d="M321.926 139.713l40.663 22.734v45.466l-40.663 22.734-40.663-22.734v-45.466l40.663-22.734z"/>
            <path fill="#003E6B" d="M450.473-78.278l40.663 22.734v45.466l-40.663 22.734-40.663-22.734v-45.466l40.663-22.734z"/>
            <path fill="#003E6B" d="M493.332-5.908l40.663 22.734v45.466l-40.663 22.734-40.663-22.734V16.826l40.663-22.734z" opacity=".5"/>
            <path fill="#003E6B" d="M493.332 139.713l40.663 22.733v45.467l-40.663 22.733-40.663-22.733v-45.467l40.663-22.733z" opacity=".9"/>
            <path fill="#003E6B" d="M664.746-5.908l40.663 22.734v45.466l-40.663 22.734-40.662-22.734V16.826l40.662-22.734z" opacity=".3"/>
            <path fill="#336589" d="M707.594 67.343l40.663 22.733v45.467l-40.663 22.733-40.663-22.733V90.076l40.663-22.733z" opacity=".2"/>
            <path fill="#003E6B" d="M579.042-5.908l40.663 22.734v45.466l-40.663 22.734-40.662-22.734V16.826l40.662-22.734zM707.594-78.278l40.663 22.734v45.466l-40.663 22.734-40.663-22.734v-45.466l40.663-22.734zM830.172 139.713l40.663 22.734v45.466l-40.663 22.734-40.663-22.734v-45.466l40.663-22.734z"/>
        </g>
    </g>
    <defs>
        <filter id="c" width="1440" height="204" x="0" y="-4" color-interpolation-filters="sRGB" filterUnits="userSpaceOnUse">
            <feFlood flood-opacity="0" result="BackgroundImageFix"/>
            <feBlend in="SourceGraphic" in2="BackgroundImageFix" result="shape"/>
            <feColorMatrix in="SourceAlpha" result="hardAlpha" values="0 0 0 0 0 0 0 0 0 0 0 0 0 0 0 0 0 0 127 0"/>
            <feOffset dy="-4"/>
            <feGaussianBlur stdDeviation="8"/>
            <feComposite in2="hardAlpha" k2="-1" k3="1" operator="arithmetic"/>
            <feColorMatrix values="0 0 0 0 0 0 0 0 0 0 0 0 0 0 0 0 0 0 0.25 0"/>
            <feBlend in2="shape" result="effect1_innerShadow"/>
        </filter>
        <linearGradient id="a" x1="720" x2="720" y2="200" gradientUnits="userSpaceOnUse">
            <stop stop-color="#002B49"/>
            <stop offset=".519" stop-color="#003E6B"/>
            <stop offset="1" stop-color="#004F89"/>
        </linearGradient>
        <linearGradient id="d" x1="720" x2="720" y2="200" gradientUnits="userSpaceOnUse">
            <stop stop-color="#002B49"/>
            <stop offset=".519" stop-color="#003E6B"/>
            <stop offset="1" stop-color="#004F89"/>
        </linearGradient>
    </defs>
</svg>
