<svg xmlns="http://www.w3.org/2000/svg" width="1411" height="612" fill="none" viewBox="0 0 1411 612">
    <g clip-path="url(#a)">
        <path fill="#fff" d="M0 0h1411v612H0z"/>
        <path fill="#003E6B" d="M-43 634h1465V-39H-43v673z"/>
        <path fill="#2865B0" d="M1258.16 76.104v60.724l52.76 30.376 52.73-30.376V76.104l-52.73-30.375-52.76 30.375zM1373.88 273.021v60.75l52.75 30.349 52.74-30.349v-60.75l-52.74-30.375-52.75 30.375zM1084.9-24.911v60.75l52.75 30.349 52.74-30.35v-60.75l-52.74-30.374-52.75 30.375z" opacity=".5"/>
        <path fill="#0C4B8C" d="M1143.08 273.021v60.724l52.75 30.375 52.74-30.375v-60.724l-52.74-30.375-52.75 30.375z" opacity=".5"/>
        <path fill="#2865B0" d="M1200.62-24.911v60.724l52.75 30.375 52.74-30.375v-60.724l-52.74-30.375-52.75 30.375zM1201.26 371.479v60.75l52.76 30.349 52.73-30.349v-60.75l-52.73-30.375-52.76 30.375zM911 76.104v60.751l52.758 30.349 52.732-30.349v-60.75l-52.732-30.376L911 76.104zM1316.34 371.479v60.75l52.76 30.349 52.73-30.349v-60.75l-52.73-30.375-52.76 30.375zM1316.34 174.563v60.75l52.75 30.349 52.74-30.349v-60.75l-52.74-30.376-52.75 30.376zM1258.16 273.021v60.75l52.75 30.349 52.74-30.349v-60.75l-52.74-30.375-52.75 30.375z" opacity=".5"/>
        <path fill="#5E94D7" d="M1142.44 76.104v60.751l52.76 30.349 52.73-30.349v-60.75l-52.73-30.376-52.76 30.375z" opacity=".5"/>
        <path fill="#0C4B8C" d="M969.18 174.563v60.75l52.76 30.349 52.73-30.349v-60.75l-52.73-30.376-52.76 30.376z" opacity=".5"/>
        <path fill="#2865B0" d="M1373.88 76.104v60.751l52.76 30.349 52.73-30.349v-60.75l-52.73-30.376-52.76 30.375z" opacity=".5"/>
        <path fill="#5E94D7" d="M1026.72 76.104v60.751l52.76 30.349 52.73-30.349v-60.75l-52.73-30.376-52.76 30.375z" opacity=".5"/>
        <path fill="#2865B0" d="M1085.54 371.479v60.75l52.76 30.349 52.73-30.349v-60.75l-52.73-30.375-52.76 30.375zM1200.62 174.563v60.75l52.76 30.349 52.73-30.349v-60.75l-52.73-30.376-52.76 30.376z" opacity=".5"/>
        <path fill="#5E94D7" d="M1027.36 273.021v60.75l52.76 30.349 52.73-30.349v-60.75l-52.73-30.375-52.76 30.375z" opacity=".5"/>
        <path fill="#2865B0" d="M1373.88 469.937v60.751l52.76 30.349 52.73-30.349v-60.751l-52.73-30.375-52.76 30.375zM1258.8 469.937v60.751l52.76 30.349 52.73-30.349v-60.751l-52.73-30.375-52.76 30.375zM1084.9 174.563v60.75l52.75 30.349 52.74-30.349v-60.75l-52.74-30.376-52.75 30.376zM969.18-24.272v60.75l52.76 30.35 52.73-30.35v-60.75l-52.73-30.375-52.76 30.375zM1315.7-22.739V38.52l53.06 30.603 53.04-30.603v-61.259l-53.04-30.63-53.06 30.63z" opacity=".5"/>
        <path fill="#FAAC48" d="M1143.08 273.018v60.724l52.75 30.375 52.74-30.375v-60.724l-52.74-30.375-52.75 30.375z"/>
        <path fill="#EDE8D9" d="M1215.01 281.694c-2.98-3.282-8.54-7.216-18.32-7.216v8.258c5.44 0 9.59 1.511 12.28 4.507 2.93 3.256 3.56 7.528 3.56 10.498 0 9.066-5.86 19.173-13.69 19.2h-7.68v-2.449h-9.67v10.681H1198.84c13.09 0 21.89-14.198 21.89-27.458-.05-6.33-2.01-11.879-5.72-16.021z"/>
        <path fill="#492630" d="M1194.06 313.163h-15.52v1.355h15.52v-1.355z"/>
        <path fill="#723417" d="M1186.3 313.163h-7.76v1.355h7.76v-1.355z"/>
        <path fill="#ED2E3C" d="M1211.27 334.604v-9.925c0-5.471-3.71-9.925-8.28-9.925-4.57 0-8.28 4.428-8.28 9.925v9.925h-19.28v6.617h42.48v-6.617h-6.64z"/>
        <path fill="#F05D5A" d="M1194.68 324.678v9.925h-19.25v6.617h27.53v-26.441c-4.57 0-8.28 4.428-8.28 9.899z"/>
        <path fill="#E3D9C3" d="M1207.72 321.16c0 2.632-2.12 4.794-4.73 4.794-2.61 0-4.73-2.136-4.73-4.794 0-2.631 2.12-4.793 4.73-4.793 2.61 0 4.73 2.136 4.73 4.793z"/>
        <path fill="#EDE8D9" d="M1202.96 325.954c-2.61 0-4.72-2.136-4.72-4.794 0-2.631 2.11-4.793 4.72-4.793v9.587z"/>
        <path fill="#492630" d="M1205.32 321.16c0 1.303-1.05 2.371-2.35 2.371a2.365 2.365 0 0 1-2.36-2.371c0-1.302 1.05-2.37 2.36-2.37 1.3 0 2.35 1.068 2.35 2.37z"/>
        <path fill="#723417" d="M1202.97 323.531a2.365 2.365 0 0 1-2.36-2.371c0-1.302 1.05-2.37 2.36-2.37v4.741z"/>
        <path fill="#E3D9C3" d="M1191.13 260.515h-9.67v43.843h9.67v-43.843z"/>
        <path fill="#EDE8D9" d="M1186.3 260.515h-4.84v43.843h4.84v-43.843z"/>
        <path fill="#492630" d="M1191.13 302.614h-9.67v1.745h9.67v-1.745z"/>
        <path fill="#723417" d="M1186.3 302.614h-4.84v1.745h4.84v-1.745z"/>
        <path fill="#ED2E3C" d="M1194.06 265.882h-15.52v33.423h15.52v-33.423z"/>
        <path fill="#F05D5A" d="M1186.3 265.882h-7.76v33.423h7.76v-33.423z"/>
        <path fill="#492630" d="M1194.06 298.081h-15.52v1.198h15.52v-1.198z"/>
        <path fill="#723417" d="M1186.3 298.081h-7.76v1.198h7.76v-1.198z"/>
        <path fill="#E3D9C3" d="M1199.2 278.593c0 2.866-2.3 5.184-5.14 5.184-2.83 0-5.13-2.318-5.13-5.184s2.3-5.184 5.13-5.184c2.84 0 5.14 2.345 5.14 5.184z"/>
        <path fill="#EDE8D9" d="M1194.06 283.777c-2.83 0-5.13-2.318-5.13-5.184s2.3-5.184 5.13-5.184v10.368z"/>
        <path fill="#492630" d="M1196.59 278.594c0 1.407-1.15 2.553-2.53 2.553a2.544 2.544 0 0 1-2.54-2.553 2.557 2.557 0 0 1 2.54-2.553c1.41 0 2.53 1.146 2.53 2.553z"/>
        <path fill="#723417" d="M1194.06 281.172a2.544 2.544 0 0 1-2.54-2.553 2.557 2.557 0 0 1 2.54-2.553v5.106z"/>
        <path fill="#00AEFF" d="M969.18 174.564v60.75l52.76 30.349 52.73-30.349v-60.75l-52.73-30.375-52.76 30.375z"/>
        <path fill="#82BF4A" d="M992.064 218.291c2.705-.61 5.41 1.099 6.025 3.785.615 2.686-1.107 5.372-3.812 6.104-2.705.611-5.41-1.099-6.025-3.784-.492-2.686 1.106-5.372 3.812-6.105z"/>
        <path fill="#7AB042" d="M1048.87 178.168c2.71-.611 5.41 1.098 6.03 3.784.61 2.686-1.11 5.372-3.82 5.983-2.7.61-5.41-1.099-6.02-3.785-.49-2.686 1.1-5.372 3.81-5.982z"/>
        <path fill="#D9CCB6" d="M1003.71 181.104s1.78 3.45 9.75 7.47c7.98 4.021 17.27 8.811 21.77 11.29 4.48 2.446 4.28 4.356 4.28 4.356v6.733s.23-1.909-4.28-4.355c-4.47-2.445-13.79-7.27-21.77-11.29-7.97-4.02-9.75-7.437-9.75-7.437v-6.767zM1003.71 196.982s1.78 3.451 9.75 7.471c7.98 4.02 17.27 8.811 21.77 11.29 4.48 2.446 4.28 4.355 4.28 4.355v6.734s.23-1.91-4.28-4.355c-4.5-2.446-13.79-7.27-21.77-11.29-7.97-4.02-9.75-7.471-9.75-7.471v-6.734z"/>
        <path fill="#2764AF" d="M1037.62 178.189h-21.29a.603.603 0 1 1 0-1.206h21.29c.34 0 .61.268.61.603 0 .301-.27.603-.61.603zM1030.22 184.018h-22.74a.603.603 0 1 1 0-1.206h22.74c.34 0 .61.268.61.603 0 .301-.27.603-.61.603zM1030.86 201.472h-25.84a.603.603 0 1 1 0-1.206h25.84c.34 0 .61.268.61.603.03.335-.24.603-.61.603zM1038.13 207.301h-25.34c-.33 0-.6-.268-.6-.603 0-.335.27-.603.6-.603h25.34c.33 0 .6.268.6.603.04.335-.23.603-.6.603zM1036.58 225.895h-23.79c-.33 0-.6-.268-.6-.603 0-.336.27-.604.6-.604h23.79c.34 0 .61.268.61.604.03.335-.24.603-.61.603zM1028.74 231.354h-23.79c-.33 0-.6-.268-.6-.603 0-.335.27-.603.6-.603h23.79a.603.603 0 1 1 0 1.206zM1019.22 189.812h-10.3c-.33 0-.6-.268-.6-.603 0-.335.27-.603.6-.603h10.3c.34 0 .6.268.6.603.04.335-.26.603-.6.603zM1022.55 195.643h-12.28a.603.603 0 1 1 0-1.206h12.28a.603.603 0 1 1 0 1.206zM1034.49 213.13h-12.28c-.33 0-.6-.268-.6-.603 0-.335.27-.603.6-.603h12.28a.603.603 0 1 1 0 1.206zM1035 220.433h-12.28a.603.603 0 1 1 0-1.206H1035c.34 0 .6.268.6.603 0 .335-.26.603-.6.603z"/>
        <path fill="#EDE8D9" d="M1039.47 158.254s-1.78 3.451-9.75 7.471c-7.98 4.02-17.26 8.845-21.74 11.29-4.47 2.446-4.27 4.355-4.27 4.355v6.734s-.24-1.909 4.27-4.355c4.48-2.446 13.8-7.27 21.77-11.29 7.97-4.02 9.76-7.471 9.76-7.471v-6.734h-.04zM1039.47 174.101s-1.78 3.45-9.75 7.471c-7.98 4.02-17.26 8.844-21.74 11.29-4.47 2.445-4.27 4.355-4.27 4.355v6.734s-.24-1.91 4.27-4.356c4.48-2.445 13.8-7.269 21.77-11.29 7.97-4.02 9.76-7.47 9.76-7.47v-6.734h-.04zM1039.47 203.985s-1.78 3.451-9.75 7.471c-7.98 4.02-17.26 8.811-21.74 11.29-4.47 2.479-4.27 4.355-4.27 4.355v6.734s-.24-1.91 4.27-4.356c4.48-2.445 13.8-7.269 21.77-11.29 7.97-4.02 9.76-7.47 9.76-7.47v-6.734h-.04zM1039.47 219.831s-1.78 3.451-9.75 7.471c-7.98 4.02-17.26 8.844-21.74 11.29-4.47 2.445-4.27 4.355-4.27 4.355v6.734s-.24-1.91 4.27-4.355c4.48-2.446 13.8-7.27 21.77-11.29 7.97-4.021 9.76-7.471 9.76-7.471v-6.734h-.04z"/>
        <path fill="#0063C3" d="M1142.44 76.104v60.751l52.76 30.349 52.73-30.349v-60.75l-52.73-30.376-52.76 30.375z"/>
        <path fill="#E7A323" d="M1215.02 140.27c-2.88 0-6.12-.606-9.64-1.826-8.11-2.815-16.82-8.591-24.51-16.267-7.7-7.676-13.49-16.359-16.31-24.45-2.93-8.404-2.33-15.244 1.7-19.261 4.03-4.016 10.88-4.62 19.31-1.697 8.11 2.815 16.82 8.592 24.51 16.267 7.7 7.676 13.49 16.359 16.31 24.451 2.93 8.404 2.33 15.243-1.7 19.26-2.35 2.341-5.65 3.523-9.67 3.523zm-39.09-62.758c-3.31 0-5.99.929-7.84 2.775-3.29 3.28-3.68 9.174-1.09 16.593 2.69 7.732 8.27 16.069 15.69 23.476 7.43 7.406 15.79 12.965 23.54 15.656 7.44 2.579 13.35 2.194 16.64-1.086 3.29-3.28 3.67-9.173 1.08-16.592-2.69-7.733-8.27-16.07-15.69-23.476-7.43-7.407-15.79-12.966-23.54-15.656-3.25-1.128-6.21-1.69-8.79-1.69z"/>
        <path fill="#FAAB4B" d="M1175.93 140.27c-4.02 0-7.32-1.182-9.67-3.523-4.03-4.017-4.63-10.856-1.7-19.26 2.82-8.092 8.61-16.775 16.31-24.45 7.69-7.677 16.4-13.453 24.51-16.268 8.43-2.924 15.28-2.319 19.31 1.697 4.03 4.017 4.63 10.856 1.7 19.26-2.82 8.092-8.61 16.775-16.31 24.451-7.69 7.676-16.4 13.452-24.51 16.267-3.52 1.22-6.76 1.826-9.64 1.826zm39.09-62.758c-2.58 0-5.54.562-8.79 1.69-7.75 2.69-16.11 8.249-23.54 15.656-7.42 7.406-13 15.743-15.69 23.476-2.59 7.419-2.2 13.312 1.08 16.592 3.29 3.283 9.2 3.665 16.64 1.086 7.75-2.691 16.11-8.25 23.54-15.656 7.42-7.407 13-15.744 15.69-23.476 2.59-7.42 2.21-13.313-1.08-16.593-1.86-1.846-4.54-2.775-7.85-2.775z"/>
        <path fill="#ED3532" d="M1195.48 148.816c-11.59 0-20.66-18.102-20.66-41.212 0-23.11 9.07-41.212 20.66-41.212 11.58 0 20.66 18.102 20.66 41.212 0 23.11-9.08 41.212-20.66 41.212zm0-79.848c-9.8 0-18.08 17.693-18.08 38.636s8.28 38.637 18.08 38.637c9.8 0 18.07-17.694 18.07-38.637s-8.27-38.636-18.07-38.636z"/>
        <path fill="#ED3532" d="M1195.46 116.619c4.98 0 9.02-4.028 9.02-8.998 0-4.969-4.04-8.997-9.02-8.997-4.98 0-9.02 4.028-9.02 8.997 0 4.97 4.04 8.998 9.02 8.998z"/>
        <path fill="#FAAB4B" d="M1197.69 108.523c1.74 0 3.16-1.41 3.16-3.149a3.158 3.158 0 0 0-3.16-3.149c-1.74 0-3.16 1.41-3.16 3.149a3.158 3.158 0 0 0 3.16 3.149z"/>
        <path fill="#ED3532" d="M1195.48 128.21c-23.17 0-41.32-9.051-41.32-20.605 0-11.555 18.15-20.606 41.32-20.606s41.32 9.051 41.32 20.606c0 11.554-18.15 20.605-41.32 20.605zm0-38.636c-21 0-38.74 8.257-38.74 18.031 0 9.773 17.74 18.03 38.74 18.03 20.99 0 38.73-8.257 38.73-18.03 0-9.774-17.74-18.03-38.73-18.03z"/>
        <path fill="#ED3431" d="M1258.8 469.558v60.724l52.76 30.375 52.73-30.375v-60.724l-52.73-30.375-52.76 30.375z"/>
        <path fill="#FAAC4B" d="M1311.56 464.845c-.84 0-1.7.052-2.53.13-10.45 1.146-18.78 9.665-19.7 20.085a22.196 22.196 0 0 0 4.81 15.969c4.73 5.888 7.55 13.078 7.55 20.633v2.631h19.74v-1.772c0-7.867 2.77-15.448 7.68-21.622 3-3.777 4.78-8.571 4.78-13.781-.03-12.322-10-22.273-22.33-22.273z"/>
        <path fill="#BB8038" d="M1322.35 467.607c5.17 4.09 8.49 10.394 8.49 17.48 0 5.21-1.78 9.977-4.78 13.781-4.89 6.174-7.66 13.755-7.66 21.622v1.771h-16.71v2.032h19.74v-1.771c0-7.868 2.77-15.448 7.66-21.622 3-3.804 4.78-8.571 4.78-13.781 0-8.415-4.65-15.709-11.52-19.512z"/>
        <path fill="#FFFDF2" d="M1320.52 490.688c-1.05 0-1.57-.651-1.91-1.042-.26-.313-.29-.313-.34-.313-.05 0-.08 0-.34.313-.31.391-.86 1.042-1.9 1.042-1.05 0-1.57-.651-1.91-1.042-.26-.313-.29-.313-.34-.313-.05 0-.08 0-.34.313-.31.391-.86 1.042-1.91 1.042-1.04 0-1.56-.651-1.9-1.042-.26-.313-.29-.313-.34-.313-.05 0-.08 0-.34.313-.32.391-.86 1.042-1.91 1.042-1.04 0-1.57-.651-1.91-1.042-.26-.313-.28-.313-.33-.313-.06 0-.08 0-.34.313-.32.391-.87 1.042-1.91 1.042-1.05 0-1.57-.651-1.91-1.042-.26-.313-.28-.313-.34-.313-.55 0-1.02-.442-1.02-1.016 0-.547.45-1.015 1.02-1.015 1.05 0 1.57.651 1.91 1.042.26.312.29.312.34.312.05 0 .08 0 .34-.312.31-.391.86-1.042 1.91-1.042 1.04 0 1.56.651 1.9 1.042.26.312.29.312.34.312.05 0 .08 0 .34-.312.31-.391.86-1.042 1.91-1.042 1.04 0 1.56.651 1.9 1.042.27.312.29.312.34.312.06 0 .08 0 .34-.312.32-.391.87-1.042 1.91-1.042s1.57.651 1.91 1.042c.26.312.28.312.34.312.05 0 .07 0 .34-.312.31-.391.86-1.042 1.9-1.042 1.05 0 1.57.651 1.91 1.042.26.312.29.312.34.312.05 0 .08 0 .34-.312.31-.391.86-1.042 1.9-1.042a1.016 1.016 0 0 1 0 2.031c-.05 0-.07 0-.34.313-.33.417-.88 1.042-1.9 1.042z"/>
        <path fill="#BB8038" d="M1310.04 526.246c-.54 0-1.01-.443-1.01-1.016v-20.502l-10.53-16.152a1.013 1.013 0 0 1 .29-1.406 1.016 1.016 0 0 1 1.41.286l10.84 16.647v21.101c0 .599-.45 1.042-1 1.042zM1313.05 526.247c-.55 0-1.02-.443-1.02-1.016V504.13l10.84-16.646c.31-.469.94-.599 1.41-.287.47.313.6.938.29 1.407l-10.53 16.151v20.502c.03.547-.42.99-.99.99z"/>
        <path fill="#4D8C8C" d="M1314.69 535.807h-6.29a5.832 5.832 0 0 1-5.85-5.835v-5.94c0-.416.34-.755.76-.755h16.48c.42 0 .76.339.76.755v5.94c.02 3.23-2.62 5.835-5.86 5.835z"/>
        <path fill="#99BDBE" d="M1321.75 532.447h-20.43a.937.937 0 0 1-.94-.938v-13.65c0-.521.42-.938.94-.938h20.43c.52 0 .94.417.94.938v13.65c.02.521-.42.938-.94.938z"/>
        <path fill="#7FACAD" d="M1322.69 519.161h-22.31v2.657h22.31v-2.657z"/>
        <path fill="#CCDEDE" d="M1322.69 520.672h-22.28c-.73 0-1.33-.599-1.33-1.329 0-.729.6-1.328 1.33-1.328h22.28c.73 0 1.33.599 1.33 1.328 0 .73-.6 1.329-1.33 1.329zM1322.69 525.31h-22.28c-.73 0-1.33-.599-1.33-1.329 0-.729.6-1.329 1.33-1.329h22.28c.73 0 1.33.6 1.33 1.329 0 .73-.6 1.329-1.33 1.329z"/>
        <path fill="#7FACAD" d="M1322.69 528.461h-22.31v2.658h22.31v-2.658z"/>
        <path fill="#CCDEDE" d="M1322.69 529.972h-22.28c-.73 0-1.33-.599-1.33-1.328 0-.73.6-1.329 1.33-1.329h22.28c.73 0 1.33.599 1.33 1.329 0 .729-.6 1.328-1.33 1.328z"/>
        <path fill="#2865B0" d="M160.257 466.894v-62.222l-54.06-31.124-54.033 31.124v62.222l54.033 31.124 54.06-31.124zM41.682 265.121v-62.249l-54.046-31.098-54.047 31.098v62.249l54.047 31.124 54.046-31.124zM337.791 570.401v-62.249l-54.047-31.097-54.046 31.097v62.249l54.046 31.124 54.047-31.124z" opacity=".5"/>
        <path fill="#0C4B8C" d="M278.052 265.474v-62.222l-54.046-31.124-54.047 31.124v62.222l54.047 31.124 54.046-31.124z" opacity=".5"/>
        <path fill="#2865B0" d="M219.092 570.754v-62.222l-54.046-31.124L111 508.532v62.222l54.046 31.124 54.046-31.124zM218.561 164.234v-62.249l-54.06-31.097-54.033 31.097v62.249l54.033 31.124 54.06-31.124zM515.98 466.894v-62.249l-54.06-31.097-54.033 31.097v62.249l54.033 31.124 54.06-31.124zM100.642 164.234v-62.249l-54.06-31.097-54.033 31.097v62.249l54.033 31.124 54.06-31.124zM100.642 366.007v-62.248l-54.047-31.098-54.046 31.098v62.248l54.046 31.125 54.047-31.125zM160.257 265.121v-62.249l-54.047-31.098-54.046 31.098v62.249l54.046 31.124 54.047-31.124z" opacity=".5"/>
        <path fill="#5E94D7" d="M278.707 467.247v-62.249l-54.06-31.097-54.033 31.097v62.249l54.033 31.124 54.06-31.124z" opacity=".5"/>
        <path fill="#0C4B8C" d="M456.241 366.36v-62.248l-54.059-31.098-54.033 31.098v62.248l54.033 31.125 54.059-31.125z" opacity=".5"/>
        <path fill="#2865B0" d="M41.682 466.894v-62.249l-54.06-31.097-54.033 31.097v62.249l54.033 31.124 54.06-31.124z" opacity=".5"/>
        <path fill="#5E94D7" d="M397.281 467.247v-62.249l-54.059-31.097-54.033 31.097v62.249l54.033 31.124 54.059-31.124z" opacity=".5"/>
        <path fill="#2865B0" d="M337.136 164.234v-62.249l-54.06-31.097-54.033 31.097v62.249l54.033 31.124 54.06-31.124zM219.092 366.36v-62.248l-54.059-31.098L111 304.112v62.248l54.033 31.125 54.059-31.125z" opacity=".5"/>
        <path fill="#5E94D7" d="M396.627 265.474v-62.249l-54.06-31.097-54.033 31.097v62.249l54.033 31.124 54.06-31.124z" opacity=".5"/>
        <path fill="#2865B0" d="M41.682 63.347V1.1L-12.378-30-66.41 1.1v62.248l54.033 31.125 54.06-31.125zM159.601 63.347V1.1L105.542-30 51.509 1.1v62.248l54.033 31.125 54.059-31.125zM337.791 366.007v-62.248l-54.047-31.098-54.046 31.098v62.248l54.046 31.125 54.047-31.125zM456.241 570.099V507.85l-54.059-31.097-54.033 31.097v62.249l54.033 31.124 54.059-31.124zM101.297 568.175v-62.77l-54.372-31.358-54.345 31.358v62.77l54.345 31.385 54.372-31.385z" opacity=".5"/>
        <path fill="#A41034" d="M229.573 304.137v62.248l54.06 31.098 54.033-31.098v-62.248l-54.033-31.124-54.06 31.124z"/>
        <path fill="#F2726F" d="M322.743 325.803c-1.837 5.901-11.391 8.17-21.31 5.12-3.489-1.092-6.477-2.611-8.971-4.466-4.535-3.49-6.942-7.845-5.726-11.655 1.837-5.901 11.391-8.17 21.31-5.12 10.012 3.056 16.527 10.313 14.697 16.121z"/>
        <path fill="#ED3532" d="M304.852 320.033c-5.423-1.606-9.291-5.232-9.61-8.598a3.402 3.402 0 0 0-.868 1.607c-1.209 3.718 3.052 8.395 9.482 10.353 6.431 1.958 12.549.458 13.764-3.353.134-.547.274-1.187.135-1.847-2.263 2.712-7.487 3.536-12.903 1.838z"/>
        <path fill="#ED3532" d="M298.348 316.491l-1.882 2.647s-6.892 1.816-3.919 7.419c-4.535-3.49-6.942-7.845-5.726-11.655 1.837-5.901 11.391-8.17 21.31-5.12.006-.093-11.555 1.379-9.783 6.709z"/>
        <path fill="#3971B4" d="M277.27 325.354a3.509 3.509 0 0 1-2.65-.701l-5.556-4.314a3.41 3.41 0 0 1-.584-4.832 3.517 3.517 0 0 1 4.895-.577l5.555 4.314a3.41 3.41 0 0 1 .585 4.832 3.487 3.487 0 0 1-2.245 1.278zM313.033 335.599c-.045.006-.089.012-.133.016l-12.259 1.268c-1.915.199-3.63-1.173-3.831-3.063-.201-1.89 1.196-3.583 3.104-3.781l12.259-1.268c1.915-.198 3.63 1.173 3.83 3.063.196 1.846-1.125 3.504-2.97 3.765z"/>
        <path fill="#2AACE2" d="M287.092 354.315c10.91 0 19.755-8.73 19.755-19.499 0-10.769-8.845-19.499-19.755-19.499-10.91 0-19.754 8.73-19.754 19.499 0 10.769 8.844 19.499 19.754 19.499z"/>
        <path fill="#fff" fill-opacity=".3" d="M289.891 354.118c-10.799 1.526-20.808-5.878-22.354-16.539-1.545-10.659 5.958-20.539 16.757-22.065-4.829.682-7.49 9.878-5.944 20.537 1.546 10.662 6.712 18.75 11.541 18.067z"/>
        <path fill="#3971B4" d="M292.287 326.943a3.512 3.512 0 0 1-2.337-.487 3.415 3.415 0 0 1-1.113-4.741l6.349-10.046c1.019-1.612 3.169-2.104 4.803-1.098a3.416 3.416 0 0 1 1.112 4.741l-6.348 10.045a3.481 3.481 0 0 1-2.466 1.586zM305.711 357.555a3.512 3.512 0 0 1-2.96-.971l-9.107-8.976a3.408 3.408 0 0 1-.004-4.866 3.518 3.518 0 0 1 4.93-.004l9.107 8.976a3.41 3.41 0 0 1 .004 4.866 3.487 3.487 0 0 1-1.97.975z"/>
        <path fill="#2865B0" d="M263.866 349.498a3.502 3.502 0 0 1-3.541-1.734 3.417 3.417 0 0 1 1.351-4.68l10.22-5.615c1.683-.924 3.805-.327 4.741 1.333a3.417 3.417 0 0 1-1.35 4.68l-10.22 5.615a3.513 3.513 0 0 1-1.201.401z"/>
        <path fill="#F2726F" d="M280.42 344.387c1.233 6.057-6.047 12.637-16.209 14.729-3.584.718-6.935.822-10.015.394-5.656-.882-9.864-3.544-10.634-7.469-1.233-6.057 6.047-12.637 16.21-14.728 10.248-2.131 19.454 1.102 20.648 7.074z"/>
        <path fill="#ED3532" d="M261.96 347.925c-5.526 1.197-10.664-.124-12.565-2.923a3.416 3.416 0 0 0 .014 1.827c.732 3.841 6.72 5.895 13.299 4.522 6.579-1.372 11.218-5.628 10.448-9.553-.147-.544-.332-1.172-.773-1.684-.676 3.465-4.858 6.697-10.423 7.811z"/>
        <path fill="#ED3532" d="M254.554 347.944l-.375 3.225s-5.166 4.903.14 8.389c-5.656-.882-9.864-3.544-10.634-7.47-1.233-6.056 6.047-12.636 16.209-14.728-.038-.084-9.462 6.762-5.34 10.584z"/>
        <path fill="#FAAC48" d="M407.766 405.02v62.248l54.06 31.098 54.033-31.098V405.02l-54.033-31.124-54.06 31.124z"/>
        <path fill="#7AB042" d="M467.602 467.988h-6.052a1.21 1.21 0 0 1-1.21-1.211v-27.839a1.21 1.21 0 0 1 1.21-1.211h6.052a1.21 1.21 0 0 1 1.211 1.211v27.839a1.21 1.21 0 0 1-1.211 1.211z"/>
        <path fill="#659C42" d="M467.602 467.988h-6.052a1.21 1.21 0 0 1-1.21-1.211V446.2c0-.668.542-1.21 1.21-1.21h6.052a1.21 1.21 0 0 1 1.211 1.21v20.577a1.21 1.21 0 0 1-1.211 1.211z"/>
        <path fill="#00AEFF" d="M479.707 467.988h-6.053a1.21 1.21 0 0 1-1.21-1.21V417.15c0-.668.542-1.21 1.21-1.21h6.053c.668 0 1.21.542 1.21 1.21v49.628a1.21 1.21 0 0 1-1.21 1.21z"/>
        <path fill="#0063C3" d="M479.707 467.988h-6.053a1.21 1.21 0 0 1-1.21-1.21v-35.103c0-.668.542-1.21 1.21-1.21h6.053c.668 0 1.21.542 1.21 1.21v35.103a1.21 1.21 0 0 1-1.21 1.21z"/>
        <path fill="#00AEFF" d="M443.394 467.988h-6.052a1.21 1.21 0 0 1-1.21-1.211V446.2c0-.668.542-1.21 1.21-1.21h6.052a1.21 1.21 0 0 1 1.211 1.21v20.577a1.21 1.21 0 0 1-1.211 1.211z"/>
        <path fill="#ED3431" d="M491.812 467.988h-6.052a1.21 1.21 0 0 1-1.211-1.21v-56.89a1.21 1.21 0 0 1 1.211-1.211h6.052a1.21 1.21 0 0 1 1.211 1.211v56.89a1.211 1.211 0 0 1-1.211 1.21z"/>
        <path fill="#A41034" d="M491.812 467.988h-6.052a1.21 1.21 0 0 1-1.211-1.21v-42.365a1.21 1.21 0 0 1 1.211-1.211h6.052a1.21 1.21 0 0 1 1.211 1.211v42.365a1.211 1.211 0 0 1-1.211 1.21z"/>
        <path fill="#ED3431" d="M455.498 467.988h-6.052a1.21 1.21 0 0 1-1.21-1.21v-35.103c0-.668.542-1.21 1.21-1.21h6.052a1.21 1.21 0 0 1 1.211 1.21v35.103a1.21 1.21 0 0 1-1.211 1.21z"/>
        <path fill="#A41034" d="M455.498 467.988h-6.052a1.21 1.21 0 0 1-1.21-1.211v-27.839a1.21 1.21 0 0 1 1.21-1.211h6.052a1.21 1.21 0 0 1 1.211 1.211v27.839a1.21 1.21 0 0 1-1.211 1.211z"/>
        <path fill="#0063C3" d="M443.394 467.988h-6.052a1.21 1.21 0 0 1-1.21-1.211v-13.314a1.21 1.21 0 0 1 1.21-1.211h6.052a1.21 1.21 0 0 1 1.211 1.211v13.314a1.21 1.21 0 0 1-1.211 1.211z"/>
        <path fill="#fff" d="M430.685 461.937h-2.421a1.21 1.21 0 0 1 0-2.421h2.421v2.421zM430.685 454.675h-2.421a1.21 1.21 0 0 1 0-2.421h2.421v2.421zM430.685 447.412h-2.421a1.21 1.21 0 0 1 0-2.421h2.421v2.421zM430.685 440.15h-2.421a1.21 1.21 0 0 1 0-2.421h2.421v2.421zM430.685 432.887h-2.421a1.21 1.21 0 0 1 0-2.421h2.421v2.421zM430.685 425.625h-2.421a1.21 1.21 0 0 1 0-2.421h2.421v2.421zM430.685 418.362h-2.421a1.21 1.21 0 0 1 0-2.421h2.421v2.421zM430.685 411.1h-2.421a1.21 1.21 0 0 1 0-2.421h2.421v2.421z"/>
        <path fill="#fff" d="M430.685 467.988a1.21 1.21 0 0 1-1.211-1.21v-64.153a1.21 1.21 0 0 1 2.421 0v64.153a1.21 1.21 0 0 1-1.21 1.21z"/>
        <path fill="#fff" d="M427.053 467.988a1.21 1.21 0 0 1 1.211-1.211h67.784a1.21 1.21 0 0 1 0 2.421h-67.784a1.21 1.21 0 0 1-1.211-1.21z"/>
        <path fill="#ED3431" d="M229.903 508.535v62.249l54.059 31.097 54.033-31.097v-62.249l-54.033-31.124-54.059 31.124z"/>
        <path fill="#2AACE2" d="M313.736 510.012a1.3 1.3 0 0 1-.913-.373 1.262 1.262 0 0 1 0-1.803l2.811-2.773a1.306 1.306 0 0 1 1.827 0 1.266 1.266 0 0 1 0 1.803l-2.811 2.773a1.3 1.3 0 0 1-.914.373zM252.864 570.09a1.3 1.3 0 0 1-.914-.373 1.262 1.262 0 0 1 0-1.803l2.811-2.773a1.306 1.306 0 0 1 1.827 0 1.264 1.264 0 0 1 0 1.803l-2.811 2.773a1.3 1.3 0 0 1-.913.373zM322.165 518.267h-4.587a1.283 1.283 0 0 1-1.291-1.275c0-.704.577-1.275 1.291-1.275h4.587c.715 0 1.292.571 1.292 1.275s-.577 1.275-1.292 1.275zM305.378 506.222c-.713 0-1.292-.57-1.292-1.275l-.002-4.527c0-.704.577-1.275 1.29-1.275h.002c.713 0 1.291.57 1.291 1.274l.003 4.528c0 .704-.577 1.275-1.29 1.275h-.002zM251.831 559.065h-4.587a1.283 1.283 0 0 1-1.292-1.275c0-.703.577-1.274 1.292-1.274h4.587c.714 0 1.292.571 1.292 1.274 0 .704-.578 1.275-1.292 1.275zM264.035 575.638a1.283 1.283 0 0 1-1.292-1.275v-4.527c0-.705.577-1.275 1.292-1.275.714 0 1.291.57 1.291 1.275v4.527a1.283 1.283 0 0 1-1.291 1.275zM306.246 543.286c-.331 0-.662-.125-.913-.373l-3.745-3.698a1.261 1.261 0 0 1 0-1.802 1.3 1.3 0 0 1 1.826 0l3.745 3.697a1.262 1.262 0 0 1 0 1.803 1.298 1.298 0 0 1-.913.373zM317.482 532.195a1.3 1.3 0 0 1-.913-.373l-3.746-3.697a1.262 1.262 0 0 1 0-1.803 1.302 1.302 0 0 1 1.827 0l3.746 3.697a1.262 1.262 0 0 1 0 1.803 1.3 1.3 0 0 1-.914.373zM295.007 510.014c-.331 0-.662-.125-.914-.374l-3.744-3.697a1.26 1.26 0 0 1 0-1.803 1.303 1.303 0 0 1 1.826 0l3.745 3.698a1.261 1.261 0 0 1 0 1.802 1.297 1.297 0 0 1-.913.374zM299.69 547.909c-.331 0-.661-.125-.913-.374l-2.81-2.773a1.263 1.263 0 0 1 0-1.802 1.304 1.304 0 0 1 1.827 0l2.809 2.773a1.261 1.261 0 0 1 0 1.802 1.295 1.295 0 0 1-.913.374zM295.007 554.379c-.331 0-.662-.124-.914-.373l-3.744-3.697a1.26 1.26 0 0 1 0-1.803 1.303 1.303 0 0 1 1.826 0l3.745 3.697a1.262 1.262 0 0 1 0 1.803 1.295 1.295 0 0 1-.913.373zM288.452 559c-.331 0-.661-.124-.913-.373l-2.811-2.773a1.264 1.264 0 0 1 0-1.803 1.303 1.303 0 0 1 1.826 0l2.811 2.773a1.262 1.262 0 0 1 0 1.803 1.294 1.294 0 0 1-.913.373zM266.911 537.742c-.33 0-.661-.125-.913-.374l-2.809-2.773a1.263 1.263 0 0 1 0-1.802 1.305 1.305 0 0 1 1.826 0l2.81 2.773a1.261 1.261 0 0 1 0 1.802 1.297 1.297 0 0 1-.914.374zM283.771 565.47a1.3 1.3 0 0 1-.913-.373l-3.746-3.698a1.261 1.261 0 0 1 0-1.802 1.3 1.3 0 0 1 1.826 0l3.747 3.697a1.262 1.262 0 0 1 0 1.803 1.3 1.3 0 0 1-.914.373zM277.214 570.09c-.331 0-.661-.125-.913-.373l-2.81-2.773a1.264 1.264 0 0 1 0-1.803 1.306 1.306 0 0 1 1.827 0l2.809 2.773a1.262 1.262 0 0 1 0 1.803 1.298 1.298 0 0 1-.913.373zM283.771 521.105c-.33 0-.661-.125-.913-.374l-3.746-3.697a1.262 1.262 0 0 1 0-1.803 1.303 1.303 0 0 1 1.826 0l3.747 3.697a1.262 1.262 0 0 1 0 1.803 1.297 1.297 0 0 1-.914.374zM278.148 526.649c-.331 0-.661-.124-.913-.373l-2.81-2.773a1.264 1.264 0 0 1 0-1.803 1.304 1.304 0 0 1 1.827 0l2.809 2.773a1.26 1.26 0 0 1 0 1.803 1.294 1.294 0 0 1-.913.373zM261.292 543.286a1.3 1.3 0 0 1-.914-.373l-3.746-3.698a1.261 1.261 0 0 1 0-1.802 1.302 1.302 0 0 1 1.827 0l3.746 3.697a1.262 1.262 0 0 1 0 1.803 1.3 1.3 0 0 1-.913.373zM255.674 548.834c-.331 0-.662-.125-.914-.374l-2.811-2.773a1.266 1.266 0 0 1 0-1.803 1.304 1.304 0 0 1 1.827 0l2.811 2.773a1.262 1.262 0 0 1 0 1.803 1.297 1.297 0 0 1-.913.374zM272.528 532.195a1.3 1.3 0 0 1-.913-.373l-3.746-3.697a1.262 1.262 0 0 1 0-1.803 1.3 1.3 0 0 1 1.826 0l3.747 3.697a1.262 1.262 0 0 1 0 1.803 1.3 1.3 0 0 1-.914.373zM289.389 515.56a1.3 1.3 0 0 1-.914-.373l-2.809-2.773a1.264 1.264 0 0 1 0-1.803 1.305 1.305 0 0 1 1.826 0l2.81 2.773a1.262 1.262 0 0 1 0 1.803 1.3 1.3 0 0 1-.913.373zM310.927 536.818c-.331 0-.662-.125-.914-.374l-2.809-2.772a1.264 1.264 0 0 1 0-1.803 1.305 1.305 0 0 1 1.826 0l2.81 2.773a1.261 1.261 0 0 1 0 1.802 1.297 1.297 0 0 1-.913.374z"/>
        <path fill="#2865B0" d="M255.673 566.044a12.949 12.949 0 0 1 0-18.485l39.333-38.82c5.173-5.105 13.558-5.105 18.73 0a12.947 12.947 0 0 1 0 18.485l-39.332 38.82c-5.174 5.105-13.559 5.105-18.731 0z"/>
        <path fill="#2AACE2" d="M290.354 529.433c-.342 0-.687-.131-.944-.385-1.914-1.89.114-5.613 2.81-8.274a1.305 1.305 0 0 1 1.826 0 1.263 1.263 0 0 1 0 1.804c-2.359 2.328-2.941 4.316-2.775 4.714.504.498.487 1.282-.019 1.779a1.264 1.264 0 0 1-.898.362zM307.424 522.617c-2.589 0-5.964-2.013-8.649-4.661a1.261 1.261 0 0 1 0-1.802 1.302 1.302 0 0 1 1.827 0c3.65 3.6 6.897 4.333 7.539 3.697a1.3 1.3 0 0 1 1.826 0 1.264 1.264 0 0 1 0 1.803c-.677.668-1.552.963-2.543.963zM276.247 538.335l.002.001-.002-.001zm-.66 2.269c-.418 0-.822-.126-1.164-.464a1.26 1.26 0 0 1 0-1.802 1.299 1.299 0 0 1 1.274-.323c.613-.238 2.266-1.325 4.345-3.375a1.304 1.304 0 0 1 1.826-.001 1.265 1.265 0 0 1 0 1.804c-1.31 1.293-2.653 2.413-3.782 3.158-.483.317-1.527 1.003-2.499 1.003zM286.556 542.958l.001.001-.001-.001zm-.915 2.176c-.33 0-.662-.125-.914-.375-.505-.499-1.849-1.826 4.684-8.272a1.305 1.305 0 0 1 1.826 0 1.261 1.261 0 0 1 0 1.802c-2.644 2.61-4.043 4.595-4.337 5.28.098.415-.018.869-.345 1.192a1.3 1.3 0 0 1-.914.373zM266.677 553.293c-1.989 0-4.332-1.044-6.301-2.985a1.262 1.262 0 0 1 0-1.803 1.302 1.302 0 0 1 1.827 0c2.157 2.129 4.77 2.731 5.665 1.848a1.304 1.304 0 0 1 1.827 0 1.262 1.262 0 0 1 0 1.803c-.779.768-1.836 1.137-3.018 1.137zM265.036 567.315a1.3 1.3 0 0 1-.914-.373c-2.694-2.66-4.724-6.382-2.812-8.273a1.306 1.306 0 0 1 1.828-.001c.495.488.505 1.274.029 1.774-.143.437.455 2.401 2.782 4.697a1.262 1.262 0 0 1 0 1.803 1.3 1.3 0 0 1-.913.373z"/>
        <path fill="#00AEFF" d="M110.468 102.011v62.248l54.047 31.098 54.046-31.098v-62.248l-54.046-31.125-54.047 31.125z"/>
        <path fill="#fff" d="M175.591 102.182c-1.707-4.387-5.969-7.498-10.96-7.498-4.992 0-9.253 3.111-10.961 7.498a6.175 6.175 0 0 0-6.154 6.569c.188 3.025 2.608 5.502 5.629 5.757a6.178 6.178 0 0 0 2.62-.34l.035.04c2.704 3.073 4.255 6.989 4.255 11.082v4.456h9.151v-4.456c0-4.093 1.551-8.009 4.255-11.082l.035-.04a6.18 6.18 0 0 0 2.621.34c3.02-.255 5.44-2.732 5.628-5.757a6.175 6.175 0 0 0-6.154-6.569z"/>
        <path fill="#E0E0E0" d="M175.591 102.182c-1.69-4.341-5.881-7.43-10.805-7.495v35.059h4.419v-4.456c0-4.093 1.552-8.009 4.255-11.082l.035-.04a6.18 6.18 0 0 0 2.621.339c3.02-.255 5.44-2.732 5.628-5.757a6.173 6.173 0 0 0-6.153-6.568z"/>
        <path fill="#fff" d="M150.188 98.985a2.206 2.206 0 1 0-.001-4.411 2.206 2.206 0 0 0 .001 4.41z"/>
        <path fill="#E0E0E0" d="M180.176 99.398a3.61 3.61 0 1 0 0-7.22 3.61 3.61 0 0 0 0 7.22z"/>
        <path fill="#E1EFFA" d="M170.534 136.555v-16.26h-11.468v16.26c-7.654 2.429-13.201 9.591-13.201 18.05 0 10.458 8.477 18.935 18.935 18.935 10.458 0 18.935-8.477 18.935-18.935 0-8.459-5.546-15.621-13.201-18.05z"/>
        <path fill="#ED3532" d="M148.346 153.097a16.679 16.679 0 0 0-.123 2.024c0 9.155 7.422 16.577 16.577 16.577 9.155 0 16.577-7.422 16.577-16.577 0-.686-.042-1.361-.122-2.024h-32.909z"/>
        <path fill="#A31C35" d="M181.255 153.097h-16.467v18.6l.013.001c9.155 0 16.577-7.422 16.577-16.577 0-.686-.042-1.361-.123-2.024z"/>
        <path fill="#C1DFF6" d="M172.616 119.924h-15.63v4.81h15.63v-4.81z"/>
        <path fill="#A0CCEF" d="M172.614 119.924h-7.828v4.81h7.828v-4.81z"/>
        <path fill="#2865B0" d="M276.667 670.474v-62.222l-54.06-31.124-54.033 31.124v62.222l54.033 31.124 54.06-31.124z" opacity=".5"/>
        <path fill="#5E94D7" d="M395.118 670.827v-62.249l-54.06-31.097-54.033 31.097v62.249l54.033 31.124 54.06-31.124z" opacity=".5"/>
        <path fill="#2865B0" d="M158.093 670.474v-62.249l-54.06-31.097L50 608.225v62.249l54.033 31.124 54.06-31.124zM1426.67 632.474v-62.222l-54.06-31.124-54.04 31.124v62.222l54.04 31.124 54.06-31.124zM1308.09 632.474v-62.249l-54.06-31.097-54.03 31.097v62.249l54.03 31.124 54.06-31.124z" opacity=".5"/>
        <path fill="#5E94D7" d="M513.692 670.827v-62.249l-54.06-31.097-54.033 31.097v62.249l54.033 31.124 54.06-31.124z" opacity=".5"/>
    </g>
    <defs>
        <clipPath id="a">
            <path fill="#fff" d="M0 0h1411v612H0z"/>
        </clipPath>
    </defs>
</svg>
