<svg xmlns="http://www.w3.org/2000/svg" width="1500" height="815" fill="none" viewBox="0 0 1500 815">
    <g clip-path="url(#a)">
        <path fill="#003E6B" d="M0 0h1500v815H0z"/>
        <path fill="#003E6B" d="M0 72h1500v291H0zM-26.337-55l40.662 23.528v47.056L-26.337 39.11-67 15.584v-47.056L-26.337-55zM61.517-55l40.662 23.528v47.056L61.517 39.11 20.854 15.584v-47.056L61.517-55zM148.517-55l40.662 23.528v47.056L148.517 39.11l-40.663-23.527v-47.056L148.517-55zM236.517-55l40.662 23.528v47.056L236.517 39.11l-40.663-23.527v-47.056L236.517-55zM323.517-55l40.662 23.528v47.056L323.517 39.11l-40.663-23.527v-47.056L323.517-55zM411.517-55l40.662 23.528v47.056L411.517 39.11l-40.663-23.527v-47.056L411.517-55zM498.517-55l40.662 23.528v47.056L498.517 39.11l-40.663-23.527v-47.056L498.517-55zM586.517-55l40.662 23.528v47.056L586.517 39.11l-40.663-23.527v-47.056L586.517-55zM673.517-55l40.662 23.528v47.056L673.517 39.11l-40.663-23.527v-47.056L673.517-55z"/>
        <path fill="#003A63" d="M761.517-55l40.662 23.528v47.056L761.517 39.11l-40.663-23.527v-47.056L761.517-55z"/>
        <path fill="#003E6B" d="M848.517-55l40.662 23.528v47.056L848.517 39.11l-40.663-23.527v-47.056L848.517-55zM936.517-55l40.662 23.528v47.056L936.517 39.11l-40.663-23.527v-47.056L936.517-55zM1023.52-55l40.66 23.528v47.056l-40.66 23.527-40.666-23.527v-47.056L1023.52-55zM1111.52-55l40.66 23.528v47.056l-40.66 23.527-40.67-23.527v-47.056L1111.52-55zM1198.52-55l40.66 23.528v47.056l-40.66 23.527-40.67-23.527v-47.056L1198.52-55zM1286.52-55l40.66 23.528v47.056l-40.66 23.527-40.67-23.527v-47.056L1286.52-55zM1373.52-55l40.66 23.528v47.056l-40.66 23.527-40.67-23.527v-47.056L1373.52-55zM1461.52-55l40.66 23.528v47.056l-40.66 23.527-40.67-23.527v-47.056L1461.52-55z"/>
        <path fill="#003A63" d="M16.517 21l40.662 23.528v47.056L16.517 115.11l-40.663-23.527V44.528L16.517 21z"/>
        <path fill="#003E6B" d="M103.517 21l40.662 23.528v47.056l-40.662 23.527-40.663-23.527V44.528L103.517 21zM191.517 21l40.662 23.528v47.056l-40.662 23.527-40.663-23.527V44.528L191.517 21z"/>
        <path fill="#08446F" d="M278.517 21l40.662 23.528v47.056l-40.662 23.527-40.663-23.527V44.528L278.517 21z"/>
        <path fill="#003E6B" d="M366.517 21l40.662 23.528v47.056l-40.662 23.527-40.663-23.527V44.528L366.517 21zM453.517 21l40.662 23.528v47.056l-40.662 23.527-40.663-23.527V44.528L453.517 21zM541.517 21l40.662 23.528v47.056l-40.662 23.527-40.663-23.527V44.528L541.517 21zM628.517 21l40.662 23.528v47.056l-40.662 23.527-40.663-23.527V44.528L628.517 21zM716.517 21l40.662 23.528v47.056l-40.662 23.527-40.663-23.527V44.528L716.517 21zM803.517 21l40.662 23.528v47.056l-40.662 23.527-40.663-23.527V44.528L803.517 21zM891.517 21l40.662 23.528v47.056l-40.662 23.527-40.663-23.527V44.528L891.517 21z"/>
        <path fill="#08446F" d="M978.517 21l40.663 23.528v47.056l-40.663 23.527-40.663-23.527V44.528L978.517 21z"/>
        <path fill="#003E6B" d="M1066.52 21l40.66 23.528v47.056l-40.66 23.527-40.67-23.527V44.528L1066.52 21zM1153.52 21l40.66 23.528v47.056l-40.66 23.527-40.67-23.527V44.528L1153.52 21zM1241.52 21l40.66 23.528v47.056l-40.66 23.527-40.67-23.527V44.528L1241.52 21z"/>
        <path fill="#08446F" d="M1328.52 21l40.66 23.528v47.056l-40.66 23.527-40.67-23.527V44.528L1328.52 21z"/>
        <path fill="#003E6B" d="M1416.52 21l40.66 23.528v47.056l-40.66 23.527-40.67-23.527V44.528L1416.52 21zM1503.52 21l40.66 23.528v47.056l-40.66 23.527-40.67-23.527V44.528L1503.52 21zM-27.337 96l40.662 23.528v47.056l-40.662 23.527L-68 166.584v-47.056L-27.337 96zM60.517 96l40.662 23.528v47.056l-40.662 23.527-40.663-23.527v-47.056L60.517 96z"/>
        <path fill="#08446F" d="M147.517 96l40.662 23.528v47.056l-40.662 23.527-40.663-23.527v-47.056L147.517 96z"/>
        <path fill="#003E6B" d="M235.517 96l40.662 23.528v47.056l-40.662 23.527-40.663-23.527v-47.056L235.517 96zM322.517 96l40.662 23.528v47.056l-40.662 23.527-40.663-23.527v-47.056L322.517 96z"/>
        <path fill="#134C76" d="M410.517 96l40.662 23.528v47.056l-40.662 23.527-40.663-23.527v-47.056L410.517 96z"/>
        <path fill="#003E6B" d="M497.517 96l40.662 23.528v47.056l-40.662 23.527-40.663-23.527v-47.056L497.517 96zM585.517 96l40.662 23.528v47.056l-40.662 23.527-40.663-23.527v-47.056L585.517 96z"/>
        <path fill="#003A63" d="M672.517 96l40.662 23.528v47.056l-40.662 23.527-40.663-23.527v-47.056L672.517 96z"/>
        <path fill="#003E6B" d="M760.517 96l40.662 23.528v47.056l-40.662 23.527-40.663-23.527v-47.056L760.517 96z"/>
        <path fill="#08446F" d="M847.517 96l40.662 23.528v47.056l-40.662 23.527-40.663-23.527v-47.056L847.517 96z"/>
        <path fill="#003E6B" d="M935.517 96l40.662 23.528v47.056l-40.662 23.527-40.663-23.527v-47.056L935.517 96z"/>
        <path fill="#003A63" d="M1022.52 96l40.66 23.528v47.056l-40.66 23.527-40.666-23.527v-47.056L1022.52 96z"/>
        <path fill="#08446F" d="M1110.52 96l40.66 23.528v47.056l-40.66 23.527-40.67-23.527v-47.056L1110.52 96z"/>
        <path fill="#003E6B" d="M1197.52 96l40.66 23.528v47.056l-40.66 23.527-40.67-23.527v-47.056L1197.52 96zM1285.52 96l40.66 23.528v47.056l-40.66 23.527-40.67-23.527v-47.056L1285.52 96zM1372.52 96l40.66 23.528v47.056l-40.66 23.527-40.67-23.527v-47.056L1372.52 96z"/>
        <path fill="#003A63" d="M1460.52 96l40.66 23.528v47.056l-40.66 23.527-40.67-23.527v-47.056L1460.52 96z"/>
        <path fill="#003E6B" d="M15.517 172l40.662 23.528v47.056l-40.662 23.527-40.663-23.527v-47.056L15.517 172zM102.517 172l40.662 23.528v47.056l-40.662 23.527-40.663-23.527v-47.056L102.517 172z"/>
        <path fill="#003A63" d="M190.517 172l40.662 23.528v47.056l-40.662 23.527-40.663-23.527v-47.056L190.517 172z"/>
        <path fill="#003E6B" d="M365.517 172l40.662 23.528v47.056l-40.662 23.527-40.663-23.527v-47.056L365.517 172zM452.517 172l40.662 23.528v47.056l-40.662 23.527-40.663-23.527v-47.056L452.517 172zM540.517 172l40.662 23.528v47.056l-40.662 23.527-40.663-23.527v-47.056L540.517 172zM627.517 172l40.662 23.528v47.056l-40.662 23.527-40.663-23.527v-47.056L627.517 172z"/>
        <path fill="#134C76" d="M715.517 172l40.662 23.528v47.056l-40.662 23.527-40.663-23.527v-47.056L715.517 172z"/>
        <path fill="#003E6B" d="M802.517 172l40.662 23.528v47.056l-40.662 23.527-40.663-23.527v-47.056L802.517 172zM890.517 172l40.662 23.528v47.056l-40.662 23.527-40.663-23.527v-47.056L890.517 172zM977.517 172l40.663 23.528v47.056l-40.663 23.527-40.663-23.527v-47.056L977.517 172z"/>
        <path fill="#134C76" d="M1065.52 172l40.66 23.528v47.056l-40.66 23.527-40.67-23.527v-47.056L1065.52 172z"/>
        <path fill="#003E6B" d="M1152.52 172l40.66 23.528v47.056l-40.66 23.527-40.67-23.527v-47.056L1152.52 172z"/>
        <path fill="#003A63" d="M1240.52 172l40.66 23.528v47.056l-40.66 23.527-40.67-23.527v-47.056L1240.52 172z"/>
        <path fill="#003E6B" d="M1327.52 172l40.66 23.528v47.056l-40.66 23.527-40.67-23.527v-47.056L1327.52 172zM1415.52 172l40.66 23.528v47.056l-40.66 23.527-40.67-23.527v-47.056L1415.52 172zM1502.52 172l40.66 23.528v47.056l-40.66 23.527-40.67-23.527v-47.056L1502.52 172zM-28.337 248l40.662 23.528v47.056l-40.662 23.527L-69 318.584v-47.056L-28.337 248zM59.517 248l40.662 23.528v47.056l-40.662 23.527-40.663-23.527v-47.056L59.517 248z"/>
        <path fill="#134C76" d="M146.517 248l40.662 23.528v47.056l-40.662 23.527-40.663-23.527v-47.056L146.517 248z"/>
        <path fill="#003E6B" d="M234.517 248l40.662 23.528v47.056l-40.662 23.527-40.663-23.527v-47.056L234.517 248zM321.517 248l40.662 23.528v47.056l-40.662 23.527-40.663-23.527v-47.056L321.517 248zM409.517 248l40.662 23.528v47.056l-40.662 23.527-40.663-23.527v-47.056L409.517 248zM496.517 248l40.662 23.528v47.056l-40.662 23.527-40.663-23.527v-47.056L496.517 248z"/>
        <path fill="#08446F" d="M584.517 248l40.662 23.528v47.056l-40.662 23.527-40.663-23.527v-47.056L584.517 248z"/>
        <path fill="#134C76" d="M671.517 248l40.662 23.528v47.056l-40.662 23.527-40.663-23.527v-47.056L671.517 248z"/>
        <path fill="#003E6B" d="M759.517 248l40.662 23.528v47.056l-40.662 23.527-40.663-23.527v-47.056L759.517 248z"/>
        <path fill="#134C76" d="M846.517 248l40.662 23.528v47.056l-40.662 23.527-40.663-23.527v-47.056L846.517 248z"/>
        <path fill="#003E6B" d="M934.517 248l40.662 23.528v47.056l-40.662 23.527-40.663-23.527v-47.056L934.517 248zM1021.52 248l40.66 23.528v47.056l-40.66 23.527-40.666-23.527v-47.056L1021.52 248zM1109.52 248l40.66 23.528v47.056l-40.66 23.527-40.67-23.527v-47.056L1109.52 248zM1196.52 248l40.66 23.528v47.056l-40.66 23.527-40.67-23.527v-47.056L1196.52 248zM1284.52 248l40.66 23.528v47.056l-40.66 23.527-40.67-23.527v-47.056L1284.52 248z"/>
        <path fill="#08446F" d="M1371.52 248l40.66 23.528v47.056l-40.66 23.527-40.67-23.527v-47.056L1371.52 248z"/>
        <path fill="#003E6B" d="M1459.52 248l40.66 23.528v47.056l-40.66 23.527-40.67-23.527v-47.056L1459.52 248zM14.517 324l40.662 23.528v47.056l-40.662 23.527-40.663-23.527v-47.056L14.517 324zM101.517 324l40.662 23.528v47.056l-40.662 23.527-40.663-23.527v-47.056L101.517 324zM189.517 324l40.662 23.528v47.056l-40.662 23.527-40.663-23.527v-47.056L189.517 324z"/>
        <path fill="#134C76" d="M276.517 324l40.662 23.528v47.056l-40.662 23.527-40.663-23.527v-47.056L276.517 324z"/>
        <path fill="#003A63" d="M364.517 324l40.662 23.528v47.056l-40.662 23.527-40.663-23.527v-47.056L364.517 324z"/>
        <path fill="#003E6B" d="M451.517 324l40.662 23.528v47.056l-40.662 23.527-40.663-23.527v-47.056L451.517 324zM539.517 324l40.662 23.528v47.056l-40.662 23.527-40.663-23.527v-47.056L539.517 324zM626.517 324l40.662 23.528v47.056l-40.662 23.527-40.663-23.527v-47.056L626.517 324zM714.517 324l40.662 23.528v47.056l-40.662 23.527-40.663-23.527v-47.056L714.517 324zM801.517 324l40.662 23.528v47.056l-40.662 23.527-40.663-23.527v-47.056L801.517 324zM889.517 324l40.662 23.528v47.056l-40.662 23.527-40.663-23.527v-47.056L889.517 324z"/>
        <path fill="#134C76" d="M976.517 324l40.663 23.528v47.056l-40.663 23.527-40.663-23.527v-47.056L976.517 324z"/>
        <path fill="#003E6B" d="M1064.52 324l40.66 23.528v47.056l-40.66 23.527-40.67-23.527v-47.056L1064.52 324zM1151.52 324l40.66 23.528v47.056l-40.66 23.527-40.67-23.527v-47.056L1151.52 324zM1239.52 324l40.66 23.528v47.056l-40.66 23.527-40.67-23.527v-47.056L1239.52 324zM1326.52 324l40.66 23.528v47.056l-40.66 23.527-40.67-23.527v-47.056L1326.52 324zM1414.52 324l40.66 23.528v47.056l-40.66 23.527-40.67-23.527v-47.056L1414.52 324zM1501.52 324l40.66 23.528v47.056l-40.66 23.527-40.67-23.527v-47.056L1501.52 324zM-29.337 399l40.662 23.528v47.056l-40.662 23.527L-70 469.584v-47.056L-29.337 399zM58.517 399l40.662 23.528v47.056l-40.662 23.527-40.663-23.527v-47.056L58.517 399zM145.517 399l40.662 23.528v47.056l-40.662 23.527-40.663-23.527v-47.056L145.517 399z"/>
        <path fill="#134C76" d="M233.517 399l40.662 23.528v47.056l-40.662 23.527-40.663-23.527v-47.056L233.517 399z"/>
        <path fill="#003E6B" d="M320.517 399l40.662 23.528v47.056l-40.662 23.527-40.663-23.527v-47.056L320.517 399zM408.517 399l40.662 23.528v47.056l-40.662 23.527-40.663-23.527v-47.056L408.517 399z"/>
        <path fill="#134C76" d="M495.517 399l40.662 23.528v47.056l-40.662 23.527-40.663-23.527v-47.056L495.517 399z"/>
        <path fill="#003E6B" d="M583.517 399l40.662 23.528v47.056l-40.662 23.527-40.663-23.527v-47.056L583.517 399zM670.517 399l40.662 23.528v47.056l-40.662 23.527-40.663-23.527v-47.056L670.517 399z"/>
        <path fill="#08446F" d="M758.517 399l40.662 23.528v47.056l-40.662 23.527-40.663-23.527v-47.056L758.517 399z"/>
        <path fill="#003E6B" d="M845.517 399l40.662 23.528v47.056l-40.662 23.527-40.663-23.527v-47.056L845.517 399zM933.517 399l40.662 23.528v47.056l-40.662 23.527-40.663-23.527v-47.056L933.517 399zM1020.52 399l40.66 23.528v47.056l-40.66 23.527-40.666-23.527v-47.056L1020.52 399zM1108.52 399l40.66 23.528v47.056l-40.66 23.527-40.67-23.527v-47.056L1108.52 399z"/>
        <path fill="#134C76" d="M1195.52 399l40.66 23.528v47.056l-40.66 23.527-40.67-23.527v-47.056L1195.52 399z"/>
        <path fill="#003E6B" d="M1283.52 399l40.66 23.528v47.056l-40.66 23.527-40.67-23.527v-47.056L1283.52 399z"/>
        <path fill="#003A63" d="M1370.52 399l40.66 23.528v47.056l-40.66 23.527-40.67-23.527v-47.056L1370.52 399z"/>
        <path fill="#003E6B" d="M1458.52 399l40.66 23.528v47.056l-40.66 23.527-40.67-23.527v-47.056L1458.52 399z"/>
        <path fill="#08446F" d="M13.517 475l40.662 23.528v47.056l-40.662 23.527-40.663-23.527v-47.056L13.517 475z"/>
        <path fill="#003E6B" d="M100.517 475l40.662 23.528v47.056l-40.662 23.527-40.663-23.527v-47.056L100.517 475z" opacity=".9"/>
        <path fill="#003E6B" d="M188.517 475l40.662 23.528v47.056l-40.662 23.527-40.663-23.527v-47.056L188.517 475z"/>
        <path fill="#08446F" d="M275.517 475l40.662 23.528v47.056l-40.662 23.527-40.663-23.527v-47.056L275.517 475z"/>
        <path fill="#003E6B" d="M363.517 475l40.662 23.528v47.056l-40.662 23.527-40.663-23.527v-47.056L363.517 475zM450.517 475l40.662 23.528v47.056l-40.662 23.527-40.663-23.527v-47.056L450.517 475zM538.517 475l40.662 23.528v47.056l-40.662 23.527-40.663-23.527v-47.056L538.517 475z"/>
        <path fill="#08446F" d="M625.517 475l40.662 23.528v47.056l-40.662 23.527-40.663-23.527v-47.056L625.517 475z"/>
        <path fill="#003E6B" d="M713.517 475l40.662 23.528v47.056l-40.662 23.527-40.663-23.527v-47.056L713.517 475zM800.517 475l40.662 23.528v47.056l-40.662 23.527-40.663-23.527v-47.056L800.517 475z"/>
        <path fill="#003A63" d="M888.517 475l40.662 23.528v47.056l-40.662 23.527-40.663-23.527v-47.056L888.517 475z"/>
        <path fill="#003E6B" d="M975.517 475l40.663 23.528v47.056l-40.663 23.527-40.663-23.527v-47.056L975.517 475zM1063.52 475l40.66 23.528v47.056l-40.66 23.527-40.67-23.527v-47.056L1063.52 475z"/>
        <path fill="#003A63" d="M1150.52 475l40.66 23.528v47.056l-40.66 23.527-40.67-23.527v-47.056L1150.52 475z"/>
        <path fill="#003E6B" d="M1238.52 475l40.66 23.528v47.056l-40.66 23.527-40.67-23.527v-47.056L1238.52 475zM1325.52 475l40.66 23.528v47.056l-40.66 23.527-40.67-23.527v-47.056L1325.52 475zM1413.52 475l40.66 23.528v47.056l-40.66 23.527-40.67-23.527v-47.056L1413.52 475zM1500.52 475l40.66 23.528v47.056l-40.66 23.527-40.67-23.527v-47.056L1500.52 475zM-30.337 551l40.662 23.528v47.056l-40.662 23.527L-71 621.584v-47.056L-30.337 551zM57.517 551l40.662 23.528v47.056l-40.662 23.527-40.663-23.527v-47.056L57.517 551zM144.517 551l40.662 23.528v47.056l-40.662 23.527-40.663-23.527v-47.056L144.517 551z"/>
        <path fill="#08446F" d="M232.517 551l40.662 23.528v47.056l-40.662 23.527-40.663-23.527v-47.056L232.517 551z"/>
        <path fill="#003E6B" d="M319.517 551l40.662 23.528v47.056l-40.662 23.527-40.663-23.527v-47.056L319.517 551z"/>
        <path fill="#08446F" d="M407.517 551l40.662 23.528v47.056l-40.662 23.527-40.663-23.527v-47.056L407.517 551z"/>
        <path fill="#134C76" d="M494.517 551l40.662 23.528v47.056l-40.662 23.527-40.663-23.527v-47.056L494.517 551z"/>
        <path fill="#003E6B" d="M582.517 551l40.662 23.528v47.056l-40.662 23.527-40.663-23.527v-47.056L582.517 551z"/>
        <path fill="#134C76" d="M669.517 551l40.662 23.528v47.056l-40.662 23.527-40.663-23.527v-47.056L669.517 551z"/>
        <path fill="#003E6B" d="M757.517 551l40.662 23.528v47.056l-40.662 23.527-40.663-23.527v-47.056L757.517 551zM844.517 551l40.662 23.528v47.056l-40.662 23.527-40.663-23.527v-47.056L844.517 551zM932.517 551l40.662 23.528v47.056l-40.662 23.527-40.663-23.527v-47.056L932.517 551z"/>
        <path fill="#08446F" d="M1019.52 551l40.66 23.528v47.056l-40.66 23.527-40.666-23.527v-47.056L1019.52 551z"/>
        <path fill="#003E6B" d="M1107.52 551l40.66 23.528v47.056l-40.66 23.527-40.67-23.527v-47.056L1107.52 551zM1194.52 551l40.66 23.528v47.056l-40.66 23.527-40.67-23.527v-47.056L1194.52 551z"/>
        <path fill="#08446F" d="M1282.52 551l40.66 23.528v47.056l-40.66 23.527-40.67-23.527v-47.056L1282.52 551z"/>
        <path fill="#003E6B" d="M1369.52 551l40.66 23.528v47.056l-40.66 23.527-40.67-23.527v-47.056L1369.52 551z"/>
        <path fill="#08446F" d="M1457.52 551l40.66 23.528v47.056l-40.66 23.527-40.67-23.527v-47.056L1457.52 551z"/>
        <path fill="#003E6B" d="M12.517 627l40.662 23.528v47.056l-40.662 23.527-40.663-23.527v-47.056L12.517 627z"/>
        <path fill="#08446F" d="M99.517 627l40.662 23.528v47.056l-40.662 23.527-40.663-23.527v-47.056L99.517 627z"/>
        <path fill="#003E6B" d="M187.517 627l40.662 23.528v47.056l-40.662 23.527-40.663-23.527v-47.056L187.517 627zM274.517 627l40.662 23.528v47.056l-40.662 23.527-40.663-23.527v-47.056L274.517 627zM362.517 627l40.662 23.528v47.056l-40.662 23.527-40.663-23.527v-47.056L362.517 627zM449.517 627l40.662 23.528v47.056l-40.662 23.527-40.663-23.527v-47.056L449.517 627z"/>
        <path fill="#003A63" d="M537.517 627l40.662 23.528v47.056l-40.662 23.527-40.663-23.527v-47.056L537.517 627z"/>
        <path fill="#003E6B" d="M624.517 627l40.662 23.528v47.056l-40.662 23.527-40.663-23.527v-47.056L624.517 627zM712.517 627l40.662 23.528v47.056l-40.662 23.527-40.663-23.527v-47.056L712.517 627zM799.517 627l40.662 23.528v47.056l-40.662 23.527-40.663-23.527v-47.056L799.517 627zM887.517 627l40.662 23.528v47.056l-40.662 23.527-40.663-23.527v-47.056L887.517 627z"/>
        <path fill="#134C76" d="M974.517 627l40.663 23.528v47.056l-40.663 23.527-40.663-23.527v-47.056L974.517 627z"/>
        <path fill="#08446F" d="M1062.52 627l40.66 23.528v47.056l-40.66 23.527-40.67-23.527v-47.056L1062.52 627z"/>
        <path fill="#003E6B" d="M1149.52 627l40.66 23.528v47.056l-40.66 23.527-40.67-23.527v-47.056L1149.52 627z"/>
        <path fill="#134C76" d="M1237.52 627l40.66 23.528v47.056l-40.66 23.527-40.67-23.527v-47.056L1237.52 627z"/>
        <path fill="#003E6B" d="M1324.52 627l40.66 23.528v47.056l-40.66 23.527-40.67-23.527v-47.056L1324.52 627zM1412.52 627l40.66 23.528v47.056l-40.66 23.527-40.67-23.527v-47.056L1412.52 627z"/>
        <path fill="#134C76" d="M1499.52 627l40.66 23.528v47.056l-40.66 23.527-40.67-23.527v-47.056L1499.52 627z"/>
        <path fill="#003E6B" d="M-31.337 702l40.662 23.528v47.056l-40.662 23.527L-72 772.584v-47.056L-31.337 702z"/>
        <path fill="#134C76" d="M56.517 702l40.662 23.528v47.056l-40.662 23.527-40.663-23.527v-47.056L56.517 702z"/>
        <path fill="#003E6B" d="M143.517 702l40.662 23.528v47.056l-40.662 23.527-40.663-23.527v-47.056L143.517 702z"/>
        <path fill="#003A63" d="M231.517 702l40.662 23.528v47.056l-40.662 23.527-40.663-23.527v-47.056L231.517 702z"/>
        <path fill="#08446F" d="M318.517 702l40.662 23.528v47.056l-40.662 23.527-40.663-23.527v-47.056L318.517 702z"/>
        <path fill="#003E6B" d="M406.517 702l40.662 23.528v47.056l-40.662 23.527-40.663-23.527v-47.056L406.517 702z"/>
        <path fill="#134C76" d="M493.517 702l40.662 23.528v47.056l-40.662 23.527-40.663-23.527v-47.056L493.517 702z"/>
        <path fill="#003E6B" d="M581.517 702l40.662 23.528v47.056l-40.662 23.527-40.663-23.527v-47.056L581.517 702zM668.517 702l40.662 23.528v47.056l-40.662 23.527-40.663-23.527v-47.056L668.517 702z"/>
        <path fill="#134C76" d="M756.517 702l40.662 23.528v47.056l-40.662 23.527-40.663-23.527v-47.056L756.517 702z"/>
        <path fill="#003E6B" d="M843.517 702l40.662 23.528v47.056l-40.662 23.527-40.663-23.527v-47.056L843.517 702zM931.517 702l40.662 23.528v47.056l-40.662 23.527-40.663-23.527v-47.056L931.517 702z"/>
        <path fill="#003A63" d="M1018.52 702l40.66 23.528v47.056l-40.66 23.527-40.666-23.527v-47.056L1018.52 702z"/>
        <path fill="#003E6B" d="M1106.52 702l40.66 23.528v47.056l-40.66 23.527-40.67-23.527v-47.056L1106.52 702zM1193.52 702l40.66 23.528v47.056l-40.66 23.527-40.67-23.527v-47.056L1193.52 702z"/>
        <path fill="#003A63" d="M1281.52 702l40.66 23.528v47.056l-40.66 23.527-40.67-23.527v-47.056L1281.52 702z"/>
        <path fill="#134C76" d="M1368.52 702l40.66 23.528v47.056l-40.66 23.527-40.67-23.527v-47.056L1368.52 702z"/>
        <path fill="#003E6B" d="M1456.52 702l40.66 23.528v47.056l-40.66 23.527-40.67-23.527v-47.056L1456.52 702zM11.517 778l40.662 23.528v47.056l-40.662 23.527-40.663-23.527v-47.056L11.517 778zM98.517 778l40.662 23.528v47.056l-40.662 23.527-40.663-23.527v-47.056L98.517 778zM186.517 778l40.662 23.528v47.056l-40.662 23.527-40.663-23.527v-47.056L186.517 778zM273.517 778l40.662 23.528v47.056l-40.662 23.527-40.663-23.527v-47.056L273.517 778zM361.517 778l40.662 23.528v47.056l-40.662 23.527-40.663-23.527v-47.056L361.517 778zM448.517 778l40.662 23.528v47.056l-40.662 23.527-40.663-23.527v-47.056L448.517 778zM536.517 778l40.662 23.528v47.056l-40.662 23.527-40.663-23.527v-47.056L536.517 778zM623.517 778l40.662 23.528v47.056l-40.662 23.527-40.663-23.527v-47.056L623.517 778zM711.517 778l40.662 23.528v47.056l-40.662 23.527-40.663-23.527v-47.056L711.517 778z"/>
        <path fill="#08446F" d="M798.517 778l40.662 23.528v47.056l-40.662 23.527-40.663-23.527v-47.056L798.517 778z"/>
        <path fill="#003E6B" d="M886.517 778l40.662 23.528v47.056l-40.662 23.527-40.663-23.527v-47.056L886.517 778zM973.517 778l40.663 23.528v47.056l-40.663 23.527-40.663-23.527v-47.056L973.517 778zM1061.52 778l40.66 23.528v47.056l-40.66 23.527-40.67-23.527v-47.056L1061.52 778zM1148.52 778l40.66 23.528v47.056l-40.66 23.527-40.67-23.527v-47.056L1148.52 778zM1236.52 778l40.66 23.528v47.056l-40.66 23.527-40.67-23.527v-47.056L1236.52 778zM1323.52 778l40.66 23.528v47.056l-40.66 23.527-40.67-23.527v-47.056L1323.52 778zM1411.52 778l40.66 23.528v47.056l-40.66 23.527-40.67-23.527v-47.056L1411.52 778zM1498.52 778l40.66 23.528v47.056l-40.66 23.527-40.67-23.527v-47.056L1498.52 778z"/>
    </g>
    <defs>
        <clipPath id="a">
            <path fill="#fff" d="M0 0h1500v815H0z"/>
        </clipPath>
    </defs>
</svg>
