<svg xmlns="http://www.w3.org/2000/svg" width="141" height="50" fill="none" viewBox="0 0 141 50">
    <path fill="#2865B0" d="M59.522 7.217L49.048 25.222l10.474 17.41h8.661L57.71 25.223 68.183 7.217h-8.661z"/>
    <path fill="#003E6B" d="M138.314 17.621c.101 0 .168.07.168.14s-.067.14-.134.14h-.638v2.208c0 .07-.067.14-.134.14s-.168-.07-.168-.14v-2.207h-.638c-.067 0-.134-.07-.134-.14s.067-.14.134-.14h1.544zm2.082.246c.033-.14.168-.21.302-.21.168 0 .302.14.302.315v2.207c0 .07-.067.14-.134.14s-.135-.07-.135-.14v-1.962c0-.035 0-.07-.033-.07 0 0-.034 0-.034.035l-.604 1.962c-.034.07-.067.14-.168.14s-.168-.07-.201-.175l-.571-1.927c0-.035-.034-.035-.034-.035-.033 0-.033.035-.033.035v1.927c0 .07-.067.14-.168.14-.067 0-.134-.07-.134-.14v-2.207c0-.175.134-.316.302-.316.134 0 .268.07.302.21l.504 1.857.537-1.786zM73.085 18.917c.437 0 .705.316.705.701 0 .42-.269.736-.705.736h-2.853c-2.451 0-3.492 1.33-3.492 3.958V26.8c0 2.838 1.175 4.134 3.492 4.134h2.853c.437 0 .705.315.705.736 0 .385-.269.7-.705.7h-2.853c-3.324 0-4.97-1.822-4.97-5.57v-2.452c0-3.503 1.646-5.395 4.97-5.395h2.853v-.035zM76.677 14.643c0-.42.302-.77.738-.77.437 0 .772.315.772.77v4.274h4.13c2.148 0 4.028 1.646 4.028 4.414v8.267c0 .42-.336.736-.772.736a.712.712 0 0 1-.739-.736v-8.232c0-1.822-1.208-3.013-2.517-3.013h-4.13v11.245c0 .42-.335.736-.772.736-.47 0-.738-.316-.738-.736V14.643zM90.307 20.354c-.504 0-.772-.316-.772-.736 0-.385.269-.7.739-.7h4.532c2.047 0 3.491 1.68 3.491 3.853v8.442c0 .63-.47 1.121-1.108 1.121h-4.666c-2.048 0-3.727-1.681-3.727-3.783s1.645-3.854 3.727-3.854h4.263v-1.856c0-1.437-.805-2.522-2.081-2.522l-4.398.035zm6.48 10.509v-4.694h-4.264c-1.175 0-2.216 1.086-2.216 2.382 0 1.26 1.04 2.312 2.216 2.312h4.263zM107.091 18.917c2.149 0 4.029 1.647 4.029 4.414v8.232c0 .386-.336.771-.772.771-.437 0-.739-.385-.739-.77V23.33c0-1.786-1.04-2.977-2.518-2.977h-4.129v11.174c0 .456-.336.806-.772.806-.47 0-.739-.385-.739-.77v-11.49c0-.596.437-1.157 1.142-1.157h4.498zM122.334 18.917c.672 0 1.108.49 1.108 1.121V32.23c0 4.029-1.04 6.06-4.7 6.06h-3.86c-.47 0-.739-.315-.739-.7 0-.386.269-.701.705-.701h3.861c2.45 0 3.155-1.296 3.189-4.519h-4.062c-2.149 0-4.029-1.646-4.029-4.414v-4.028c0-1.927 1.041-5.01 4.063-5.01h4.464zm-.402 1.507h-4.029c-1.41 0-2.551 1.436-2.551 3.573v3.958c0 1.787 1.208 2.908 2.518 2.908h4.062v-10.44zM126.395 24.032c0-3.258 2.115-5.115 4.801-5.115 3.122 0 4.935 1.822 4.935 5.115v1.226c0 .63-.47 1.086-1.108 1.086h-7.117c.034 3.223.739 4.554 3.189 4.554h3.861c.47 0 .739.315.739.736 0 .385-.269.7-.705.7h-3.895c-3.726 0-4.7-2.067-4.7-6.235v-2.067zm8.192-.105c-.034-2.347-1.175-3.573-3.391-3.573-2.014 0-3.223 1.4-3.29 3.573v1.156h6.681v-1.156zM0 14.678c0-.455.336-.77.806-.77.47 0 .805.35.805.77v16.114h7.453c.504 0 .84.315.84.77 0 .456-.336.771-.806.771H1.242C.537 32.334 0 31.809 0 31.108V14.678zM13.26 20.354c-.503 0-.772-.316-.772-.736 0-.385.269-.7.739-.7h4.532c2.048 0 3.491 1.68 3.491 3.853v8.442c0 .63-.47 1.121-1.107 1.121h-4.667c-2.048 0-3.726-1.681-3.726-3.783s1.645-3.854 3.726-3.854h4.264v-1.856c0-1.437-.806-2.522-2.082-2.522l-4.398.035zm6.48 10.509v-4.694h-4.264c-1.175 0-2.216 1.086-2.216 2.382 0 1.26 1.041 2.312 2.216 2.312h4.264zM24.406 14.643c0-.42.336-.77.739-.77.436 0 .772.315.772.77v4.274h4.062c2.149 0 4.029 1.646 4.029 4.414v4.028c0 1.927-1.041 4.975-4.096 4.975h-4.364c-.638 0-1.142-.56-1.142-1.156V14.643zm1.51 16.184h4.03c1.41 0 2.55-1.436 2.55-3.538v-3.958c0-1.787-1.208-2.978-2.517-2.978h-4.062v10.474z"/>
    <path fill="#000" d="M57.34 25.327l-4.13-7.251-4.162 7.146 4.095 6.76 4.197-6.655z" opacity=".15"/>
    <path fill="url(#a)" d="M42.569 25.327L27.798 49.848h12.186l14.771-24.52L39.984 0H27.798l14.77 25.327z"/>
    <defs>
        <linearGradient id="a" x1="22.528" x2="69.504" y1="39.09" y2="-14.714" gradientUnits="userSpaceOnUse">
            <stop stop-color="#FBAC4C"/>
            <stop offset=".033" stop-color="#F9A44A"/>
            <stop offset=".089" stop-color="#F69144"/>
            <stop offset=".162" stop-color="#F2713B"/>
            <stop offset=".249" stop-color="#ED3532"/>
            <stop offset=".34" stop-color="#D42D34"/>
            <stop offset=".517" stop-color="#A41D36"/>
            <stop offset="1" stop-color="#A41D36"/>
        </linearGradient>
    </defs>
</svg>
