<svg xmlns="http://www.w3.org/2000/svg" viewBox="0 0 360 180">
    <defs>
        <style>
            .cls-1 {
                fill: none;
            }

            .cls-2 {
                isolation: isolate;
            }

            .cls-3 {
                fill: #0063c3;
            }

            .cls-4 {
                fill: #ffffff;
            }

            .cls-5 {
                clip-path: url(#clip-path);
            }

            .cls-6 {
                opacity: 0.45;
                mix-blend-mode: multiply;
            }

            .cls-7 {
                opacity: 0.55;
            }

            .cls-8 {
                fill: url(#linear-gradient);
            }
        </style>
        <clipPath id="clip-path">
            <polygon class="cls-1"
                     points="160.1 59.21 141.07 90.48 160.1 120.79 175.8 120.79 156.77 90.48 175.8 59.21 160.1 59.21"/>
        </clipPath>
        <linearGradient id="linear-gradient" x1="92.95" y1="114.61" x2="174.13" y2="17.59"
                        gradientUnits="userSpaceOnUse">
            <stop offset="0" stop-color="#faac4b"/>
            <stop offset="0.04" stop-color="#f9a549"/>
            <stop offset="0.09" stop-color="#f79045"/>
            <stop offset="0.16" stop-color="#f36f3e"/>
            <stop offset="0.23" stop-color="#ee4034"/>
            <stop offset="0.25" stop-color="#ed3431"/>
            <stop offset="0.52" stop-color="#a41034"/>
        </linearGradient>
    </defs>
    <title>LabXchange_Logo_RGB</title>
    <g class="cls-2">
        <g id="Layer_1" data-name="Layer 1">
            <polygon class="cls-3"
                     points="160.1 59.21 141.07 90.48 160.1 120.79 175.8 120.79 156.77 90.48 175.8 59.21 160.1 59.21"/>
            <path class="cls-4"
                  d="M303.07,77.3a.29.29,0,0,1,.29.27.29.29,0,0,1-.27.26h-1.17v3.84a.27.27,0,1,1-.53,0V77.83h-1.18a.26.26,0,0,1-.25-.26.29.29,0,0,1,.25-.27Zm3.8.38a.59.59,0,0,1,.54-.38.57.57,0,0,1,.55.55v3.82a.29.29,0,0,1-.27.27.3.3,0,0,1-.27-.27V78.29c0-.07,0-.1-.06-.1s-.06,0-.08.07l-1.11,3.44a.32.32,0,0,1-.31.24.39.39,0,0,1-.35-.29l-1-3.36c0-.05-.05-.07-.08-.07s-.06,0-.06.09v3.36a.31.31,0,0,1-.28.27.29.29,0,0,1-.26-.27V77.85a.55.55,0,0,1,.55-.55.53.53,0,0,1,.54.39l.95,3.25Z"/>
            <path class="cls-4"
                  d="M184.69,79.53a1.25,1.25,0,1,1,0,2.5h-5.15c-4.43,0-6.32,2.33-6.32,6.87v4.33c0,4.91,2.12,7.17,6.32,7.17h5.15a1.24,1.24,0,1,1,0,2.48h-5.15c-6,0-9-3.15-9-9.68V88.9c0-6.08,3-9.37,9-9.37Z"/>
            <path class="cls-4"
                  d="M191.23,72.09a1.29,1.29,0,0,1,1.36-1.32A1.33,1.33,0,0,1,194,72.09v7.44h7.47c3.9,0,7.32,2.88,7.32,7.68v14.4a1.31,1.31,0,0,1-1.43,1.27,1.23,1.23,0,0,1-1.32-1.27V87.29c0-3.17-2.19-5.26-4.57-5.26H194v19.58a1.29,1.29,0,0,1-1.39,1.27,1.24,1.24,0,0,1-1.36-1.27Z"/>
            <path class="cls-4"
                  d="M216,82a1.25,1.25,0,0,1-1.4-1.26,1.24,1.24,0,0,1,1.32-1.24h8.24a6.38,6.38,0,0,1,6.35,6.71v14.7a1.91,1.91,0,0,1-2,1.94H220a6.67,6.67,0,0,1-6.75-6.6A6.74,6.74,0,0,1,220,89.6h7.74V86.4c0-2.49-1.48-4.37-3.77-4.37Zm11.77,18.28V92.16H220a4.16,4.16,0,0,0-4,4.12,4.08,4.08,0,0,0,4,4Z"/>
            <path class="cls-4"
                  d="M246.41,79.53a7.26,7.26,0,0,1,7.32,7.68v14.35a1.41,1.41,0,0,1-1.43,1.32,1.32,1.32,0,0,1-1.32-1.32V87.21c0-3.09-1.88-5.18-4.57-5.18h-7.48v19.46a1.38,1.38,0,0,1-2.75.07v-20a2,2,0,0,1,2.1-2Z"/>
            <path class="cls-4"
                  d="M274.11,79.53a1.92,1.92,0,0,1,2,2V102.7c0,7-1.91,10.54-8.55,10.54h-7a1.24,1.24,0,1,1-.08-2.48h7c4.44,0,5.74-2.24,5.81-7.88H266a7.23,7.23,0,0,1-7.31-7.66v-7c0-3.38,1.9-8.71,7.4-8.71Zm-.74,2.63h-7.31c-2.58,0-4.65,2.51-4.65,6.19v6.87a4.74,4.74,0,0,0,4.56,5.07h7.4Z"/>
            <path class="cls-4"
                  d="M281.45,88.44c0-5.64,3.85-8.91,8.7-8.91,5.68,0,8.93,3.16,8.93,8.91V90.6a1.92,1.92,0,0,1-2,1.9H284.23c0,5.57,1.31,7.9,5.8,7.9h7a1.24,1.24,0,0,1,1.35,1.25,1.21,1.21,0,0,1-1.28,1.23H290c-6.76,0-8.55-3.6-8.55-10.87Zm14.86-.21c-.06-4.06-2.12-6.2-6.16-6.2-3.65,0-5.88,2.45-5.95,6.19v2h12.11Z"/>
            <path class="cls-4"
                  d="M52,72.13a1.44,1.44,0,0,1,2.88,0v28H68.48A1.39,1.39,0,0,1,70,101.52a1.37,1.37,0,0,1-1.43,1.36H54.29A2.15,2.15,0,0,1,52,100.73Z"/>
            <path class="cls-4"
                  d="M76.11,82a1.25,1.25,0,0,1-1.4-1.26A1.24,1.24,0,0,1,76,79.53h8.23a6.38,6.38,0,0,1,6.36,6.71v14.7a1.92,1.92,0,0,1-2,1.94H80.14a6.66,6.66,0,0,1-6.74-6.6,6.73,6.73,0,0,1,6.74-6.68h7.74V86.4c0-2.49-1.48-4.37-3.76-4.37Zm11.77,18.28V92.16H80.14a4.16,4.16,0,0,0-4,4.12,4.09,4.09,0,0,0,4,4Z"/>
            <path class="cls-4"
                  d="M96.34,72.09a1.38,1.38,0,0,1,2.75,0v7.44h7.38c3.9,0,7.32,2.88,7.32,7.68v7c0,3.37-1.92,8.66-7.41,8.66H98.43a2.1,2.1,0,0,1-2.09-2Zm2.75,28.18h7.29c2.59,0,4.66-2.51,4.66-6.19V87.21c0-3.09-2.17-5.18-4.57-5.18H99.09Z"/>
            <g class="cls-5">
                <g class="cls-6">
                    <polygon class="cls-7" points="148 77 140 90 148 103 156.12 90.67 148 77"/>
                </g>
            </g>
            <polygon class="cls-8"
                     points="124.6 46.63 151.41 90.67 124.6 133.37 102.49 133.37 129.29 90.67 102.49 46.63 124.6 46.63"/>
        </g>
    </g>
</svg>
