<svg xmlns="http://www.w3.org/2000/svg" width="201" height="51" fill="none" viewBox="0 0 201 51">
    <path fill="#1D1D1B" d="M81.109 34.866c0-.426-.275-.752-.85-.852v-.276c.325 0 1.35.05 1.65.05.25 0 1.275-.05 1.575-.05v.276c-.525.1-.8.426-.8.852v5.416c0 1.705.95 2.683 2.9 2.683 1.7 0 3-.752 3-2.558v-5.566c0-.401-.25-.727-.876-.852v-.276c.225 0 1.1.05 1.4.05.25 0 1.15-.05 1.4-.05v.276c-.6.15-.875.426-.875.852v5.265c0 2.357-1.375 3.711-4.324 3.711-2.75 0-4.175-1.253-4.175-3.485v-5.466h-.025zM92.908 43.416c.65-.125.9-.451.9-.852v-7.472c0-.627-.325-.928-.9-1.078v-.276c.325.025.875.05 1.15.05.25 0 .65 0 .9-.05l6.474 7.622v-6.519c0-.401-.25-.727-.875-.852v-.276c.225 0 1.075.05 1.35.05.25 0 1.15-.05 1.375-.05v.276c-.625.15-.925.426-.925.852v8.976h-.4c-.25-.05-.7-.326-1.425-1.103l-5.774-6.77v6.595c0 .4.225.727.85.852v.276c-.225 0-1.075-.05-1.35-.05-.25 0-1.125.05-1.375.05v-.25h.025zM143.954 41.385h.275c.15.552.475 1.078.9 1.354.475.326 1.2.477 1.775.477 1.3 0 2.125-.652 2.125-1.68 0-1.053-1.05-1.605-2.325-2.232-.95-.476-2.8-1.253-2.8-3.034 0-1.68 1.275-2.708 3.3-2.708 1.35 0 1.975.326 2.875.276l-.025 2.031h-.275c-.35-1.203-1.45-1.605-2.625-1.605-1.325 0-1.825.753-1.825 1.53 0 1.103 1.075 1.655 2.3 2.206 1.375.627 2.875 1.38 2.875 3.11 0 1.63-1.275 2.808-3.6 2.808-1.375 0-2.225-.401-2.95-.477v-2.056zM173.252 39.154v3.384c0 .326.25.753.825.853v.276c-.325 0-1.375-.05-1.675-.05-.25 0-1.25.05-1.625.05v-.276c.575-.1.85-.527.85-.852v-3.235l1.625-.15zm-1.5.426l-2.625-4.237c-.45-.753-.8-1.129-1.299-1.33v-.275c.349 0 1.324.05 1.624.05.25 0 1.3-.05 1.675-.05v.276c-.325.05-.5.225-.5.476 0 .226.15.502.3.777.15.251 1.95 3.235 1.95 3.235l1.875-3.235c.2-.326.325-.652.325-.852 0-.2-.125-.351-.45-.401v-.276c.325 0 .975.05 1.2.05.225 0 .975-.05 1.3-.05v.25c-.725.301-1.175.928-1.6 1.655l-2.4 4.012M122.806 33.738h6.175c.2 0 .525-.025.725-.1h.275l-.05 2.005h-.275c-.225-.627-.475-1.128-1.675-1.128h-2.675v3.51h2.075c.3 0 .675-.025.825-.075.475-.1.675-.351.775-.752h.275c-.025.3-.025 1.003-.025 1.203 0 .2.025.928.025 1.254h-.275c-.125-.401-.325-.702-.775-.802-.15-.05-.525-.076-.825-.076h-2.075v4.112h2.925c1.275 0 1.65-.526 1.95-1.278l.274.075-.274 2.056c-.95-.075-1.525-.075-2.6-.075h-3.075c-.3 0-1.375.05-1.7.05v-.276c.55-.1.875-.376.875-.928v-7.597c0-.476-.25-.777-.875-.877v-.301zM107.032 34.941c0-.501-.3-.802-.9-.927v-.276c.325 0 1.4.05 1.725.05.25 0 1.375-.05 1.7-.05v.276c-.6.125-.9.376-.9.927v7.547c0 .502.3.778.9.903v.276c-.325 0-1.4-.05-1.7-.05-.275 0-1.375.05-1.725.05v-.276c.6-.125.9-.376.9-.903v-7.547zM153.879 34.941c0-.501-.3-.802-.9-.927v-.276c.325 0 1.4.05 1.725.05.275 0 1.375-.05 1.7-.05v.276c-.6.125-.9.376-.9.927v7.547c0 .502.3.778.9.903v.276c-.325 0-1.375-.05-1.7-.05-.25 0-1.375.05-1.725.05v-.276c.6-.125.9-.376.9-.903v-7.547zM162.478 33.788c-3.375 0-3.925-.075-4.625-.1v2.056h.275c.25-.903.75-1.128 1.4-1.128h2.125v7.898c0 .526-.3.802-.9.902v.276c.325 0 1.45-.05 1.725-.05.3 0 1.375.05 1.7.05v-.276c-.6-.125-.9-.4-.9-.902v-7.898h2.1c.675 0 1.15.225 1.425 1.128h.275v-2.056c-.675.025-1.225.1-4.6.1zM135.455 38.427a8.8 8.8 0 0 0 1.25.075c1.85 0 2.45-1.078 2.45-2.031 0-1.354-.9-2.181-2.525-2.181-.325 0-.825.05-1.175.1v4.037zm0 4.062c0 .501.325.777.925.902v.276c-.325 0-1.425-.05-1.725-.05-.275 0-1.325.05-1.65.05v-.276c.55-.1.875-.376.875-.902v-7.623c0-.476-.25-.777-.875-.877v-.276c.325 0 1.375.05 1.675.05.475 0 1.85-.075 2.4-.075 2.375 0 3.7.978 3.7 2.683 0 1.329-.975 2.231-2.5 2.582 0 0 .35.2.7.602.425.501 1.55 2.131 2.025 2.683.475.577 1.075 1.203 1.7 1.228v.226c-.3.075-.8.125-1.175.125-.8 0-1.45-.275-2.075-1.053-.55-.652-1.45-2.03-2-2.733-.35-.45-.775-.777-1.525-.902l-.45-.075v3.434h-.025zM111.932 34.966c-.225-.476-.55-.827-1.125-.952v-.276c.35 0 1.575.05 1.85.05.25 0 1.3-.05 1.675-.05v.276c-.325.05-.7.25-.7.576 0 .226.15.552.425 1.154l2.549 5.842 2.425-5.842c.2-.477.325-.828.325-1.129 0-.3-.275-.526-.675-.601v-.276c.325 0 1.1.05 1.35.05.225 0 1.15-.05 1.5-.05v.276c-.6.175-.975.501-1.3 1.278l-3.575 8.425h-.8l-3.924-8.75zM121.056 8.414c-.4-.903-1.05-1.58-2.125-1.805v-.527c.675 0 2.875.075 3.375.075.475 0 2.6-.075 3.3-.075v.527c-.6.125-1.3.451-1.3 1.078 0 .451.275 1.053.775 2.206l4.85 11.058 4.599-11.083c.35-.902.625-1.58.625-2.106 0-.577-.55-.978-1.3-1.153v-.527c.6 0 2.075.075 2.55.075.425 0 2.175-.075 2.85-.075v.502c-1.15.3-1.85.978-2.475 2.457l-6.749 15.971h-1.525l-7.45-16.598zM55.786 24.386c.875-.201 1.5-.602 1.5-1.605V8.163c0-.952-.575-1.354-1.5-1.604v-.527c.45 0 2.45.075 2.95.075.55 0 2.65-.075 3.1-.075v.527c-.875.2-1.526.601-1.526 1.604v6.118h10.875V8.163c0-1.003-.575-1.404-1.5-1.604v-.527c.45 0 2.5.075 3.075.075.475 0 2.524-.075 2.974-.075v.527c-.875.2-1.524.601-1.524 1.604v14.643c0 .953.625 1.354 1.524 1.605v.476c-.45 0-2.5-.05-2.974-.05-.55 0-2.6.05-3.075.05v-.476c.875-.2 1.5-.602 1.5-1.605v-6.945H60.31v6.92c0 1.003.6 1.354 1.525 1.605v.476c-.45 0-2.55-.05-3.1-.05-.474 0-2.474.05-2.95.05v-.476zM186.251 23.433c.675.125 1.95.2 2.925.2 5.624 0 8.549-3.384 8.549-8.123 0-4.915-3.075-8.35-8.324-8.35-1.075 0-2.425.076-3.125.201v16.072h-.025zm-4.75.953c1.125-.201 1.75-.652 1.75-1.68V8.163c0-1.003-.625-1.404-1.7-1.604v-.527c.625 0 2.675.075 3.25.075.925 0 3.475-.2 5.45-.2 6.674 0 10.749 3.736 10.749 9.427 0 5.541-4.225 9.628-11.124 9.628-2 0-4.35-.15-5.275-.15-.55 0-2.475.075-3.1.075v-.501zM105.807 14.983c.6.076 1.475.126 2.35.126 3.525 0 4.625-2.031 4.625-3.811 0-2.558-1.7-4.112-4.775-4.112-.625 0-1.55.075-2.2.2v7.597zm0 7.673c0 .978.625 1.504 1.75 1.73v.526c-.625 0-2.675-.075-3.25-.075-.5 0-2.5.075-3.125.075v-.526c1.05-.2 1.675-.727 1.675-1.73V8.214c0-.878-.475-1.454-1.65-1.655v-.527c.625 0 2.6.076 3.175.076.925 0 3.525-.15 4.55-.15 4.5 0 6.999 1.855 6.999 5.064 0 2.507-1.875 4.212-4.724 4.914 0 0 .65.376 1.3 1.154.8.927 2.974 4.087 3.874 5.165.875 1.078 2.025 2.281 3.225 2.331v.427c-.575.125-1.525.225-2.225.225-1.525 0-2.75-.526-3.924-1.98-1.025-1.254-2.8-3.912-3.825-5.216-.65-.827-1.45-1.479-2.9-1.73-.275-.05-.55-.075-.875-.125v6.469h-.05zM165.078 14.983c.6.076 1.475.126 2.349.126 3.525 0 4.625-2.031 4.625-3.811 0-2.558-1.7-4.112-4.775-4.112-.649 0-1.549.075-2.199.2v7.597zm0 7.673c0 .978.625 1.504 1.75 1.73v.526c-.625 0-2.675-.075-3.25-.075-.5 0-2.5.075-3.125.075v-.526c1.05-.2 1.65-.727 1.65-1.73V8.214c0-.878-.475-1.454-1.65-1.655v-.527c.625 0 2.6.076 3.175.076.925 0 3.524-.15 4.549-.15 4.5 0 7 1.855 7 5.064 0 2.507-1.875 4.212-4.725 4.914 0 0 .65.376 1.3 1.154.8.927 3 4.087 3.875 5.165.9 1.078 2.025 2.281 3.225 2.331v.427c-.575.125-1.5.225-2.225.225-1.525 0-2.75-.526-3.95-1.98-1.025-1.254-2.8-3.912-3.825-5.216-.65-.827-1.45-1.479-2.874-1.73-.3-.05-.55-.075-.875-.125v6.469h-.025zM90.558 17.34l-3-6.995-2.8 6.995h5.8zM78.56 24.386c1.2-.276 1.85-1.053 2.275-2.081l6.025-14.517c.25-.602.55-1.83.55-1.83h1.674s.3 1.228.55 1.83l6.35 14.567c.45 1.003.95 1.73 2.2 2.056v.476c-.7 0-2.825-.05-3.325-.05-.475 0-2.525.05-3.225.05v-.476c.925-.226 1.225-.702 1.225-1.153 0-.377-.15-.828-.35-1.28l-1.375-3.133h-7l-1.25 3.134c-.15.35-.3.852-.3 1.203 0 .527.276.953 1.326 1.229v.476c-.625 0-2.275-.05-2.65-.05l-2.725.05.025-.501zM150.179 17.34l-3-6.995-2.775 6.995h5.775zm-11.974 7.046c1.2-.276 1.85-1.053 2.275-2.081l6.024-14.517c.25-.602.55-1.83.55-1.83h1.675s.3 1.228.55 1.83l6.375 14.567c.45 1.003.949 1.73 2.199 2.056v.476c-.675 0-2.824-.05-3.324-.05-.475 0-2.525.05-3.225.05v-.476c.925-.226 1.225-.702 1.225-1.153 0-.377-.15-.828-.35-1.28l-1.35-3.158h-7l-1.249 3.134c-.15.35-.3.852-.3 1.203 0 .527.275.953 1.324 1.229v.476c-.625 0-2.274-.05-2.649-.05l-2.725.05-.025-.476z"/>
    <path fill="#A62131" d="M.215.165h41.972v15.897c0 7.296-2.7 22.74-20.823 34.224 0 0-19.65-8.224-21.149-34.224V.165z"/>
    <path stroke="#000" stroke-width=".23" d="M.116.116h42.022v15.92c0 7.297-2.7 22.742-20.849 34.25 0 0-19.648-8.223-21.173-34.25V.117z"/>
    <path fill="#fff" d="M31.963 20.6s-.375 1.203-2.05-.025l-5.725-.15s-.75.25-.85-.552c0 0 .125-1.58.075-1.705 0 0 .025-.452-.725-.452 0 0-1.15.126-1.2-.877 0 0-.2-1.103 1.4-1.053 0 0 .5.225.55-.402 0 0-.075-4.437-.025-4.763 0 0 .125-.402-.65-.477 0 0-1.125.226-1.25-.501 0 0-.075-1.129.675-1.204 0 0 .925.075 1.075-.175 0 0 .2.125.175-.677l.025-1.404s.1-.376.675-.326c0 0 1.05.075 1.2-.025 0 0 .225-.301.3-.452 0 0 .55-.025.65.1 0 0 .825.552 3.9.352 0 0 .475 0 .575.125 0 0 .575.451.925-.025 0 0 .5-.1 2.05-.075 0 0 1.674.451 2.824-.502l.375.076s.475.777.825.551c0 0 1.025-.1 1.2.1 0 0 .35.502.175 1.856 0 0-.2.576.775.576 0 0 1.125-.2.975.853 0 0 .3 1.203-1.575 1.028 0 0-.25.351-.2.577 0 0-.025 3.886-.075 4.337 0 0-.025.627.775.577 0 0 1.1-.075 1.125.928 0 0 .125 1.303-1.425 1.053 0 0-.475.075-.55.376l-.075 1.705s.025.852-.925.652c-.125 0-5.3.1-5.75-.025.076-.076-.174-.126-.25.025zM20.988 26.291s.25-.1.3-.276c0 0 .725-.075.825-.175l2.25.175s2.2.176 3.15-.526c0 0 .35 0 .575.1 0 0 .475.1.6.301l1.3-.025s.75.25.675.727v.602s-.125 1.229.2 1.304h1s.825.376.725.852c0 0 .025.677-.675.828 0 0-.725.2-.95.175 0 0-.25.301-.275.677l-.1 4.463s-.075.476.65.401c0 0 1.05-.1 1.35.477 0 0 .275.978-.275 1.153l-.4.2-.875.151s-.375.025-.4.677v1.204s.025.827-.625.827l-.95.075s-.225.2-.725.075c0 0-5.775.1-5.975.026l-.675.15s-.75.677-1.35.175l-.475-.376s-.35.076-.474.025c-.125-.025-6.4.076-6.4.076s-1.325.15-1.425-.301c0 0-.175-1.73-.1-1.956 0 0 0-.501-.3-.552 0 0-1.325-.075-1.35-.2 0 0-.725-.502-.5-1.028 0 0 .25-.677.95-.752 0 0 1.1.175 1.1-.126 0 0 .075-.2.075-.551 0 0 .075-4.062.025-4.338 0 0 .1-.501-.35-.501 0 0-.475.125-.775-.076 0 0-.825.025-.975-.626 0 0-.125-.402.075-.753 0 0 .375-.752 1.475-.501 0 0 .625.175.675-.276l-.025-1.63s-.15-.45.725-.677c0 0 1.1.301 1.425-.25 0 0 .375-.753.675-.251 0 0 .65.627 2.425.552 0 0 3.05-.251 3.125-.1 0 0 .75.1.95.35l.1.025zM11.74 20.6s-.376 1.203-2.05-.025l-5.725-.126s-.75.251-.85-.551c0 0 .125-1.58.075-1.705 0 0 .025-.452-.725-.452 0 0-1.15.15-1.2-.877 0 0-.2-1.103 1.4-1.053 0 0 .5.226.55-.401 0 0-.075-4.438-.025-4.79 0 0 .15-.4-.65-.476 0 0-1.125.226-1.25-.501 0 0-.075-1.128.675-1.204 0 0 .925.076 1.1-.175 0 0 .2.125.175-.677l.025-1.404s.1-.376.675-.351c0 0 1.05.075 1.2-.025 0 0 .225-.301.3-.452 0 0 .55-.025.65.1 0 0 .825.552 3.924.352 0 0 .475 0 .575.125 0 0 .575.451.925-.025 0 0 .5-.1 2.05-.075 0 0 1.675.451 2.825-.502l.375.076s.475.777.825.551c0 0 1.025-.1 1.2.1 0 0 .35.502.175 1.856 0 0-.2.576.775.576 0 0 1.125-.2.975.853 0 0 .3 1.204-1.575 1.028 0 0-.25.351-.2.577 0 0-.025 3.886-.075 4.337 0 0-.025.602.775.577 0 0 1.1-.075 1.125.928 0 0 .125 1.303-1.425 1.053 0 0-.475.075-.55.376l-.075 1.705s.025.852-.925.652c-.125 0-5.3.1-5.75-.025 0-.05-.225-.1-.3.05z"/>
    <path fill="#000" d="M31.963 20.6s-.375 1.203-2.05-.025l-5.725-.15s-.75.25-.85-.552c0 0 .125-1.58.075-1.705 0 0 .025-.452-.725-.452 0 0-1.15.126-1.2-.877 0 0-.2-1.103 1.4-1.053 0 0 .5.225.55-.402 0 0-.075-4.437-.025-4.763 0 0 .125-.402-.65-.477 0 0-1.125.226-1.25-.501 0 0-.075-1.129.675-1.204 0 0 .925.075 1.075-.175 0 0 .2.125.175-.677l.025-1.404s.1-.376.675-.326c0 0 1.05.075 1.2-.025 0 0 .225-.301.3-.452 0 0 .55-.025.65.1 0 0 .825.552 3.9.352 0 0 .475 0 .575.125 0 0 .575.451.925-.025 0 0 .5-.1 2.05-.075 0 0 1.674.451 2.824-.502l.375.076s.475.777.825.551c0 0 1.025-.1 1.2.1 0 0 .35.502.175 1.856 0 0-.2.576.775.576 0 0 1.125-.2.975.853 0 0 .3 1.203-1.575 1.028 0 0-.25.351-.2.577 0 0-.025 3.886-.075 4.337 0 0-.025.627.775.577 0 0 1.1-.075 1.125.928 0 0 .125 1.303-1.425 1.053 0 0-.475.075-.55.376l-.075 1.705s.025.852-.925.652c-.125 0-5.3.1-5.75-.025.076-.076-.174-.126-.25.025z"/>
    <path stroke="#000" stroke-width=".01" d="M31.963 20.6s-.375 1.203-2.05-.025l-5.725-.15s-.75.25-.85-.552c0 0 .15-1.58.075-1.705 0 0 .025-.452-.725-.452 0 0-1.15.126-1.2-.877 0 0-.2-1.103 1.4-1.053 0 0 .5.225.55-.402 0 0-.075-4.437-.025-4.763 0 0 .15-.402-.65-.477 0 0-1.125.226-1.25-.501 0 0-.075-1.129.675-1.204 0 0 .925.075 1.075-.175 0 0 .2.125.175-.677l.025-1.404s.1-.376.675-.326c0 0 1.05.075 1.2-.025 0 0 .225-.301.3-.452 0 0 .55-.025.65.1 0 0 .825.552 3.9.352 0 0 .475 0 .575.125 0 0 .575.451.925-.025 0 0 .5-.1 2.05-.075 0 0 1.674.451 2.824-.502l.375.076s.475.777.825.551c0 0 1.025-.1 1.2.1 0 0 .35.502.175 1.856 0 0-.2.576.775.576 0 0 1.125-.2.975.853 0 0 .3 1.203-1.575 1.028 0 0-.25.351-.2.577 0 0-.025 3.886-.075 4.337 0 0-.025.627.775.577 0 0 1.1-.075 1.125.928 0 0 .125 1.303-1.425 1.053 0 0-.475.075-.55.376l-.075 1.705s.025.852-.925.652c-.125 0-5.3.1-5.75-.025.076-.076-.174-.126-.25.025z"/>
    <path fill="#fff" d="M25.538 6.534s.075.677.075.852c0 .176-.1 9.854-.1 9.854s.1.752-.55 1.128c0 0-.175.076-.2-.4l.075-10.23s.05-1.254.7-1.204z"/>
    <path stroke="#000" stroke-width=".012" d="M25.538 6.534s.075.677.075.852c0 .176-.1 9.854-.1 9.854s.1.752-.55 1.128c0 0-.175.076-.2-.4l.075-10.23s.05-1.254.7-1.204z"/>
    <path fill="#fff" d="M24.413 18.468s.075-9.628.025-9.778c-.025-.176.025.15.025.15s-.1-1.68.35-2.357c0 0-.15-.576-.925.15l-.025 1.405s0 .777-.725.752c0 0-.825-.025-1.2.351 0 0-.2.752.575.627 0 0 1.225 0 1.3.502l-.025 5.114s.275.853-.675.853c0 0-1.15-.075-1.125.652 0 0 .25.602 1.225.4 0 0 .725.126.675.828v1.28s-.075.526.625.55h5.3s.275.026.275-.3c0 0-.025-.276-.45-.276l-4.425-.075s-.725.25-.8-.828z"/>
    <path fill="#fff" d="M25.438 18.468s-.125.477.375.377h3.5l.95.2s.975-.25 0-.777c0 0-3.125.025-3.4-.025 0 0-.65-.176-.775-.2 0-.026-.35-.151-.65.425z"/>
    <path stroke="#000" stroke-width=".012" d="M25.438 18.468s-.125.477.375.377h3.5l.95.2s.975-.25 0-.777c0 0-3.125.025-3.4-.025 0 0-.65-.176-.775-.2 0-.026-.35-.151-.65.425z"/>
    <path fill="#fff" d="M31.263 18.945s-.65 0-.625.852c0 0 .075.652.75.652 0 0 .6-.1.55-.777 0 0-.375-.853-.675-.727zM31.738 18.594s.3-.351.5-.351c0 0 3.4.3 3.974-.1 0 0 .525-.1.65 0 0 0 .5.4.5.651 0 0-.025.301-.65.126 0 0-3.85.025-4.05.025.026.025-1.024.276-.924-.351z"/>
    <path stroke="#000" stroke-width=".012" d="M31.738 18.594s.3-.351.5-.351c0 0 3.4.3 3.974-.1 0 0 .525-.1.65 0 0 0 .5.4.5.651 0 0-.025.301-.65.126 0 0-3.85.025-4.05.025.026.025-1.024.276-.924-.351z"/>
    <path fill="#fff" d="M32.188 19.697s0-.276.475-.276l4.75-.025s.45.251.45-.576c0 0 .174-3.711.2-7.823 0-1.229.05-2.507.024-3.686 0 0-.1-.501-.25-.627 0 0 0-.551.575-.35 0 0 .5.024.375.827l.025 1.178s-.1.527.825.376c0 0 .925.15.95.477 0 0 .275.677-.825.626h-.775s-.35.201-.225.627l-.1 4.94s-.075.852.75.827c0 0 .85-.025 1.025.226 0 0 .575.852-.675.777 0 0-.775-.025-.95.1 0 0-.125.176-.25 1.78 0 0 .075.953-.65.853 0 0-4.724.075-5.174-.025-.025.025-.5.175-.55-.226zM26.063 6.233l-.1 10.957s-.025.501.825.601c0 0 .975.1 1.225 0 0 0 .65-.025 2.325.025 0 0 .4.402.45-.1 0 0 .275-8.876.125-10.706 0 0-.025-.777-.625-.827 0 0-2.575.2-2.825 0l-1.025-.276c0 .025-.425.05-.375.326z"/>
    <path fill="#fff" d="M31.438 6.784s-.1 5.14-.075 5.316l-.075 4.338-.15 1.504s.2.3.375.1c0 0 1.1-.276 1.774-.175 0 0 2.175.2 2.625-.15 0 0 .35.175.45-.377 0 0 .125-9.553.075-9.728 0 0 .125-1.38.075-1.505 0 0-.025-.3-.6-.025 0 0 .075.276-3.15.176-.05 0-1.274-.025-1.324.526zM36.837 6.634l-.025 10.782s.275.952.725.852c0 0 .075-.2.1-.552l.15-10.28c-.025.026-.375-1.604-.95-.802z"/>
    <path stroke="#000" stroke-width=".012" d="M36.837 6.634l-.025 10.782s.275.952.725.852c0 0 .075-.2.1-.552l.125-10.28c0 .026-.35-1.604-.925-.802z"/>
    <path fill="#000" d="M32.663 9.868c-.1-.276.575-.3.575-.3l.35.075c.25-.025.474.075.474.075.225.376-.175.576-.175.576l-.124.452c-.026.376 0 3.61 0 3.61.075.176.35.477.35.477 0 .3-.376.25-.376.25l-.974.025c-.3-.025-.2-.376-.2-.376.35-.175.45-.777.45-.777v-3.41l-.35-.677zM28.113 10.345c.025.752.025 1.78.025 1.78.65.502 1.025-.2 1.025-.2.85-.828 0-1.58-.125-1.78-.15-.201-.825-.026-.825-.026l-.1.226zm-.05 2.708l-.075 1.053.3.501c.2.276-.125.477-.125.477l-1.1-.1c-.2-.1 0-.452 0-.452.275-.175.3-.627.3-.627l-.025-1.98.025-1.43c0-.175-.275-.476-.275-.476-.225-.025-.175-.351-.175-.351.075-.176.65-.075.65-.075h1.425c1.35.451 1.15 1.429 1.15 1.429.1.978-.95 1.404-.95 1.404l-.075.552 1 1.554c.175.126.125.276.125.276-.125.376-.675 0-.675 0l-1.225-1.906c-.075-.1-.275.15-.275.15zM20.988 26.291s.25-.1.3-.276c0 0 .725-.075.825-.175l2.25.175s2.2.176 3.15-.526c0 0 .35 0 .575.1 0 0 .475.1.6.301l1.3-.025s.75.25.675.727v.602s-.125 1.229.2 1.304h1s.825.376.725.852c0 0 .025.677-.675.828 0 0-.725.2-.95.175 0 0-.25.301-.275.677l-.1 4.463s-.075.476.65.401c0 0 1.05-.1 1.35.477 0 0 .275.978-.275 1.153l-.4.2-.875.151s-.375.025-.4.677v1.204s.025.827-.625.827l-.95.075s-.225.2-.725.075c0 0-5.775.1-5.975.026l-.675.15s-.75.677-1.35.175l-.475-.376s-.35.076-.474.025c-.125-.025-6.4.076-6.4.076s-1.325.15-1.425-.301c0 0-.175-1.73-.1-1.956 0 0 0-.501-.3-.552 0 0-1.325-.075-1.35-.2 0 0-.725-.502-.5-1.028 0 0 .25-.677.95-.752 0 0 1.1.175 1.1-.126 0 0 .075-.2.075-.551 0 0 .075-4.062.025-4.338 0 0 .1-.501-.35-.501 0 0-.475.125-.775-.076 0 0-.825.025-.975-.626 0 0-.125-.402.075-.753 0 0 .375-.752 1.475-.501 0 0 .625.175.675-.276l-.025-1.63s-.15-.45.725-.677c0 0 1.1.301 1.425-.25 0 0 .375-.753.675-.251 0 0 .65.627 2.425.552 0 0 3.05-.251 3.125-.1 0 0 .75.1.95.35l.1.025z"/>
    <path stroke="#000" stroke-width=".01" d="M20.989 26.241s.225-.1.3-.276c0 0 .724-.075.824-.175l2.25.175s2.2.176 3.175-.526c0 0 .35 0 .575.1 0 0 .475.1.6.3l1.3-.024s.75.25.675.727v.602s-.125 1.228.2 1.303h1s.825.377.725.853c0 0 .025.677-.675.827 0 0-.725.2-.95.176 0 0-.25.3-.275.677l-.1 4.463s-.075.476.65.401c0 0 1.05-.1 1.35.476 0 0 .275.978-.275 1.154l-.4.2-.875.15s-.375.026-.4.678v1.203s.025.828-.625.828l-.95.075s-.25.2-.725.075c0 0-5.774.1-5.974.025l-.675.15s-.75.678-1.35.176l-.475-.376s-.35.075-.475.025c-.125-.025-6.4.075-6.4.075s-1.325.126-1.425-.3c0 0-.175-1.73-.1-1.956 0 0 0-.502-.3-.552 0 0-1.325-.075-1.35-.2 0 0-.725-.502-.5-1.029 0 0 .25-.676.95-.752 0 0 1.075.176 1.075-.125 0 0 .075-.2.075-.552 0 0 .075-4.062.025-4.337 0 0 .1-.502-.35-.502 0 0-.475.126-.775-.075 0 0-.825.025-.975-.627 0 0-.15-.401.075-.752 0 0 .375-.752 1.475-.501 0 0 .625.175.675-.276l-.025-1.63s-.125-.451.725-.677c0 0 1.1.3 1.425-.226 0 0 .375-.752.675-.25 0 0 .65.627 2.425.551 0 0 3.075-.25 3.125-.1 0 0 .75.1.95.351h.1z"/>
    <path fill="#fff" d="M21.863 39.705s.4-.2.675-.125c.276.075 4.25-.025 4.25-.025s1.725.125 2-.1l.4-.126s.175-.2.175-.476c0-.276.025-1.204.025-1.204l.1-.35s-.025-.352 0-9.453c0 0 .125-.702-.3-1.154 0 0 0-.276.125-.225.15.025.075.025.075.025s.6-.176.7.075c0 0 .275.827.025 1.304 0 0-.075 1.003.45 1.003 0 0 .2.2.6.1 0 0 .875.1.875.376 0 0 0 .627-.625.502l-.825.075s-.55.1-.475.752c.075.652-.025 5.29-.025 5.29s0 .552.85.502c0 0 1.05-.025 1.05.276 0 0 .275.677-.475.727 0 0-1.425-.025-1.325.376 0 0-.1.953-.175 1.128 0 0 .15.777-.025.928 0 0-.1.451-1.025.376 0 0-5.85-.025-6.774.025.1-.05-.45-.125-.326-.602zM20.813 39.053s.575.1.575.652.025.853-.3.928c-.35.075-.7-.025-.8-.476-.125-.452.05-1.003.525-1.103z"/>
    <path fill="#fff" d="M21.488 38.778s.6-.402.85-.352c0 0 3.1.201 4.05.026.95-.176.375-.026.375-.026s.825 0 1.05-.3c0 0 .25-.076.375.175l.5.552s.05.326-.55.3c0 0-5.55 0-5.725.026.026 0-1.024.175-.925-.401z"/>
    <path stroke="#000" stroke-width=".012" d="M21.488 38.778s.6-.402.85-.352c0 0 3.1.201 4.05.026.95-.176.375-.026.375-.026s.825 0 1.05-.3c0 0 .25-.076.375.175l.5.552s.025.35-.55.3c0 0-5.55 0-5.725.026.026 0-1.024.175-.925-.401z"/>
    <path fill="#fff" d="M13.439 26.667s.25 0 .2.401l-.075 10.305s.1.678-.475 1.129c0 0-.3.376-.3-.2l.15-10.506s.025-.778.5-1.129z"/>
    <path stroke="#000" stroke-width=".012" d="M13.439 26.667s.25 0 .2.401l-.075 10.305s.1.678-.475 1.129c0 0-.3.376-.3-.2l.15-10.506s.025-.778.5-1.129z"/>
    <path fill="#fff" d="M12.89 26.743s-.4.752-.376.927l-.025 2.282s-.025 1.454 0 1.63c.025.175-.025 4.463-.025 4.463s-.025.827 0 1.103v1.83s-.075.828.55.602c0 0 5.975-.125 6.35-.025 0 0 .55.1.35.376 0 0 0 .25-.375.176 0 0-2.825.275-5.375.175 0 0-1.7.1-1.8-.1 0 0-.275-.025-.275-1.028 0 0 0-.928-.075-1.078 0 0 .075-.477-.775-.577 0 0-1.2.2-1.225-.502 0 0 .175-.5 1.325-.45 0 0 .85.125.675-.552l.1-5.04s.1-.903-.475-.928c0 0-.55-.025-.725.025 0 0-.975 0-.925-.576 0 0 .35-.627 1.325-.477 0 0 .75.126.775-.727 0 0-.025-1.73.375-1.805.025 0 .875.025.625.276z"/>
    <path fill="#fff" d="M13.914 38.025s.475.502 1.25.477l4.625.075s.525.025.475.3c0 0-.075.402-.675.277l-5.575-.076-.625.025s-.4-.075.25-.852l.275-.226z"/>
    <path stroke="#000" stroke-width=".012" d="M13.914 38.025s.475.502 1.25.477l4.625.075s.5.025.475.3c0 0-.075.402-.675.277l-5.575-.076-.625.025s-.4-.075.25-.852l.275-.226z"/>
    <path fill="#fff" d="M28.188 37.574s.4.777.625.903c0 0 .375.451.275-.351l.075-9.829s-.1-.351 0-.878l-.4-.752s-.45-.35-.45.2l-.075 10.481-.05.226z"/>
    <path stroke="#000" stroke-width=".012" d="M28.188 37.574s.4.777.625.903c0 0 .375.451.275-.351l.075-9.829s-.1-.351 0-.878l-.4-.752s-.45-.35-.45.2l-.075 10.481-.05.226z"/>
    <path fill="#fff" d="M20.638 32.91s.025.828-.075 1.605c-.05.426.15 2.432-.024 3.435 0 0-.026.351-.75.025 0 0-4.35.1-4.5-.025 0 0-1.2.025-1.3-.577 0 0 .175-4.663.075-4.839 0 0-.075-2.557 0-2.783 0 0 .1-2.357.025-2.632 0 0 .025-.552-.075-.828 0 0 0-.35.575-.125 0 0 .2.376 1.325.2 0 0 .825.126 1.6.026 0 0 1.725-.126 2.175 0 0 0 .674-.126.875.626l-.026 2.107.2.676.25-.175.1-.502.025-2.256s.125-.401.675-.476c0 0 .85-.1 1-.026.125.076 1.975.176 2.475.076.5-.1.6.35 2.15-.452 0 0 .4.025.4.301 0 0-.15 2.909 0 3.435 0 0 0 5.316-.1 5.692l.075 1.705s.075.752-1.125.827c0 0 .75.1-3.95-.025 0 0-.75-.025-1.575.351 0 0-.175-.025-.175-.476 0 0 .125-1.605 0-3.185l-.075-1.73-.25.026z"/>
    <path fill="#000" d="M17.589 30.504s.1 2.532 0 2.858l-.025.551s.125.377.35.502c0 0 .175.476-.25.451 0 0-.85-.075-1.05-.025 0 0-.475 0 0-.602 0 0 .175-.25.125-.852 0 0 0-2.858.075-3.034 0 0 .075-.376-.175-.476l-.4.025-.5.476s-.1.502-.35-.025v-.276l.3-.827.2-.025s.3.2.575.276h1.6l.575-.276s.225.025.175.35c0 0 .1.778-.35.878 0 0-.275-.1-.4-.476 0-.025-.45-.276-.475.527zM25.113 29.576s-1.3-.1-1.325 1.303c0 0-.15.953 1.3 1.58 0 0 1.05.502.975 1.153 0 0-.125 1.154-1.25.577 0 0-.55-.276-.5-.577 0 0-.175-.376-.375-.3 0 0-.25.075-.125 1.203 0 0 0 .451.5 0l.275.075s.925.752 1.7-.175c0 0 .85-.777.25-1.73 0 0-.45-.677-1.225-1.028 0 0-.75-.351-.925-.928 0 0 .25-1.028 1.15-.476 0 0 .35.4.55.476 0 0 .275 0 .2-.627l-.075-.501s-.075-.376-.55 0c-.025-.025-.45.15-.55-.025zM20.414 31.105c-.025.176-.275 1.129-.275 1.129l.2.35s.55.026.75.026c.2 0 .25-.176.25-.351 0-.176-.375-1.204-.375-1.204l-.175-.2-.375.25zm.55-2.256c.225.175.274.501.274.501.675 1.805 1.25 4.438 1.25 4.438.175.326.475.602.475.602.575.2 0 .376 0 .376-.25.1-1.025-.025-1.025-.025-.4-.075-.25-.2-.25-.2.175-.176.026-.853.026-.853-.025-.276-.35-.727-.35-.727-.126-.075-.376.225-.376.225s-.375.126-.4 0c-.024-.15-.274-.275-.274-.275-.4 0-.575 1.027-.575 1.027.225.853 0 .728 0 .728-.2.276-.85.075-.85.075-.3-.075-.1-.301-.1-.301.375-.075.475-.476.475-.476.175-.226 1.25-4.664 1.25-4.664.125-.2.2-.627.45-.451zM11.74 20.6s-.376 1.203-2.05-.025l-5.725-.126s-.75.251-.85-.551c0 0 .125-1.58.075-1.705 0 0 .025-.452-.725-.452 0 0-1.15.15-1.2-.877 0 0-.2-1.103 1.4-1.053 0 0 .5.226.55-.401 0 0-.075-4.438-.025-4.79 0 0 .15-.4-.65-.476 0 0-1.125.226-1.25-.501 0 0-.075-1.128.675-1.204 0 0 .925.076 1.1-.175 0 0 .2.125.175-.677l.025-1.404s.1-.376.675-.351c0 0 1.05.075 1.2-.025 0 0 .225-.301.3-.452 0 0 .55-.025.65.1 0 0 .825.552 3.924.352 0 0 .475 0 .575.125 0 0 .575.451.925-.025 0 0 .5-.1 2.05-.075 0 0 1.675.451 2.825-.502l.375.076s.475.777.825.551c0 0 1.025-.1 1.2.1 0 0 .35.502.175 1.856 0 0-.2.576.775.576 0 0 1.125-.2.975.853 0 0 .3 1.204-1.575 1.028 0 0-.25.351-.2.577 0 0-.025 3.886-.075 4.337 0 0-.025.602.775.577 0 0 1.1-.075 1.125.928 0 0 .125 1.303-1.425 1.053 0 0-.475.075-.55.376l-.075 1.705s.025.852-.925.652c-.125 0-5.3.1-5.75-.025 0-.05-.225-.1-.3.05z"/>
    <path stroke="#000" stroke-width=".01" d="M11.74 20.6s-.376 1.203-2.05-.025l-5.725-.126s-.75.251-.85-.551c0 0 .15-1.58.075-1.705 0 0 .025-.452-.725-.452 0 0-1.15.15-1.2-.877 0 0-.2-1.103 1.4-1.053 0 0 .5.225.55-.401 0 0-.075-4.438-.025-4.79 0 0 .15-.4-.65-.476 0 0-1.125.226-1.25-.526 0 0-.075-1.129.675-1.204 0 0 .925.075 1.1-.175 0 0 .2.125.175-.677l.025-1.404s.1-.376.675-.351c0 0 1.05.075 1.2-.025 0 0 .25-.301.3-.452 0 0 .55-.025.65.1 0 0 .825.552 3.924.352 0 0 .475 0 .575.125 0 0 .575.451.925-.025 0 0 .5-.1 2.05-.075 0 0 1.675.45 2.825-.502l.375.075s.475.778.825.552c0 0 1.025-.1 1.2.1 0 0 .35.502.175 1.856 0 0-.2.576.775.576 0 0 1.125-.2.975.853 0 0 .3 1.203-1.575 1.028 0 0-.25.35-.2.576 0 0-.025 3.887-.075 4.338 0 0-.025.602.775.577 0 0 1.1-.075 1.125.928 0 0 .125 1.303-1.425 1.053 0 0-.475.075-.55.376l-.075 1.705s.025.852-.925.651c-.125 0-5.3.1-5.75-.024 0-.026-.225-.076-.3.075z"/>
    <path fill="#fff" d="M5.315 6.534s.075.677.075.852c0 .176-.1 9.854-.1 9.854s.1.752-.55 1.128c0 0-.175.076-.2-.4l.05-10.23s.075-1.254.725-1.204z"/>
    <path stroke="#000" stroke-width=".012" d="M5.315 6.534s.075.677.075.852c0 .176-.1 9.854-.1 9.854s.1.752-.55 1.128c0 0-.175.076-.2-.4l.05-10.23s.075-1.254.725-1.204z"/>
    <path fill="#fff" d="M4.19 18.469s.075-9.628.025-9.779c-.025-.175.025.15.025.15s-.1-1.68.35-2.356c0 0-.125-.577-.925.125L3.64 8.013s0 .777-.725.752c0 0-.825-.025-1.2.351 0 0-.2.753.575.627 0 0 1.225 0 1.3.502l-.05 5.14s.275.852-.675.852c0 0-1.15-.075-1.125.652 0 0 .25.627 1.225.401 0 0 .725.126.675.828v1.278s-.075.502.6.552h5.3s.275.025.275-.301c0 0-.025-.276-.45-.276l-4.425-.075c.025 0-.675.25-.75-.827z"/>
    <path fill="#fff" d="M5.115 18.544s-.125.476.375.376h3.5l.95.2s1-.225 0-.777c0 0-3.125.025-3.4-.025 0 0-.65-.175-.775-.2 0 0-.35-.151-.65.426z"/>
    <path stroke="#000" stroke-width=".012" d="M5.115 18.544s-.125.476.375.376h3.5l.95.2s1-.225 0-.777c0 0-3.125.025-3.4-.025 0 0-.65-.175-.775-.2 0 0-.35-.151-.65.426z"/>
    <path fill="#fff" d="M10.914 19.02s-.65 0-.625.853c0 0 .075.652.75.652 0 0 .625-.1.55-.778.025 0-.35-.852-.675-.727zM11.39 18.694s.3-.35.5-.35c0 0 3.399.3 3.974-.101 0 0 .5-.1.65 0 0 0 .5.401.5.652 0 0-.025.3-.65.15 0 0-3.85.025-4.05.025.05 0-1.025.226-.925-.376z"/>
    <path stroke="#000" stroke-width=".012" d="M11.39 18.694s.3-.35.5-.35c0 0 3.399.3 3.974-.101 0 0 .525-.1.65 0 0 0 .5.401.5.652 0 0-.025.3-.65.15 0 0-3.85.025-4.05.025.05 0-1.025.226-.925-.376z"/>
    <path fill="#fff" d="M11.94 19.697s0-.276.474-.276l4.775-.025s.45.226.45-.576c0 0 .175-3.711.2-7.823 0-1.229.05-2.507.025-3.686 0 0-.1-.501-.225-.627 0 0 0-.551.575-.35 0 0 .5.024.375.827l.025 1.203s-.1.502.825.376c0 0 .925.126.95.477 0 0 .275.677-.8.626h-.775s-.35.201-.25.627l-.1 4.94s-.075.852.75.827c0 0 .85-.025 1.025.226 0 0 .575.852-.675.777 0 0-.775-.025-.95.1 0 0-.125.176-.225 1.78 0 0 .075.953-.65.853 0 0-4.725.075-5.175-.025-.075 0-.55.125-.625-.25zM5.815 6.233l-.1 10.957s-.025.501.825.601c0 0 1 .1 1.225 0 0 0 .65-.025 2.3.025 0 0 .4.402.45-.1 0 0 .274-8.876.124-10.706 0 0-.025-.777-.625-.827 0 0-2.574.2-2.824 0l-1.025-.276c.025.025-.375.05-.35.326z"/>
    <path fill="#fff" d="M16.614 6.634l-.025 10.782s.275.952.725.852c0 0 .075-.2.1-.552l.15-10.28c-.05.026-.375-1.604-.95-.802z"/>
    <path stroke="#000" stroke-width=".012" d="M16.614 6.634l-.025 10.782s.275.952.725.852c0 0 .075-.2.1-.552l.15-10.28c-.05.026-.375-1.604-.95-.802z"/>
    <path stroke="#000" stroke-width=".012" d="M16.614 6.634l-.025 10.782s.275.952.725.852c0 0 .075-.2.1-.552l.15-10.28c-.05.026-.375-1.604-.95-.802z"/>
    <path fill="#fff" d="M11.19 6.734s-.1 5.14-.076 5.316l-.05 4.337-.15 1.505s.2.3.375.1c0 0 1.1-.276 1.775-.175 0 0 2.175.2 2.625-.126 0 0 .35.176.45-.376 0 0 .125-9.553.075-9.728 0 0 .125-1.354.075-1.505 0 0-.025-.3-.6-.05 0 0 .075.276-3.175.176-.025.025-1.25-.025-1.325.526z"/>
    <path fill="#000" d="M10.14 9.894l-.3.652s-.75 3.31-1.15 3.986c0 0-.075.677-.65.126 0 0-1.325-4.188-1.4-4.338l-.45-.301s-.275-.376.2-.401l1.25.025s.4.35-.125.727c0 0 .075.552.775 2.633 0 0 .2.777.45.2l.674-2.432-.2-.727s-.2-.351.1-.376c.025.025.725-.05.825.226zM12.114 10.445l-.025 3.61-.1.277s-.35.45-.1.476c0 0-.3.2 2.175.25 0 0 .95.176.725-1.052 0 0-.1-.452-.45.2 0 0-.1.552-1.325.376 0 0-.275-.225-.275-.501v-1.505s-.025-.376.55-.325c0 0 .65.4.75.225 0 0 .225-.552 0-.877 0 0-.3-.026-.35.1 0 0-.2.401-.775.175 0 0-.275-.551-.1-.978 0 0-.075-.852.5-.777 0 0 .675.126.75.351 0 0 .175.401.35-.075l-.175-.577s-.1-.25-.275-.175c0 0-1.15.175-1.3.025l-.925.1s-.125.351.275.502c0-.05.1.025.1.175z"/>
</svg>
